<!-- Generated from vaibhavkhuranaaa/legal-discovery-intelligence-graph@fb1d0a731879b743e03eeca06e4b8120d573b66b:architecture/system.mmd; source-sha256=0a482066a558bd037e646d1514e08d9dacbc9ef87c13e1438a9125808b0f76bb; renderer=@mermaid-js/mermaid-cli@11.12.0 -->
<svg role="img" aria-labelledby="architecture-title architecture-description" data-source-sha256="0a482066a558bd037e646d1514e08d9dacbc9ef87c13e1438a9125808b0f76bb" id="my-svg" width="100%" xmlns="http://www.w3.org/2000/svg" xmlns:xlink="http://www.w3.org/1999/xlink" class="flowchart" style="max-width: 2316.28px; background-color: white;" viewBox="0 0 2316.28125 764.2764282226562" role="graphics-document document" aria-roledescription="flowchart-v2"><title id="architecture-title">Legal Discovery Intelligence Graph architecture</title><desc id="architecture-description">System architecture showing a reviewer, synthetic discovery inputs, validation and extraction, vector and graph stores, hybrid retrieval, security boundary, observability, Render deployment, cited outputs, and the evaluation loop.</desc><style>#my-svg{font-family:Arial,Helvetica,sans-serif;font-size:16px;fill:#17202a;}@keyframes edge-animation-frame{from{stroke-dashoffset:0;}}@keyframes dash{to{stroke-dashoffset:0;}}#my-svg .edge-animation-slow{stroke-dasharray:9,5!important;stroke-dashoffset:900;animation:dash 50s linear infinite;stroke-linecap:round;}#my-svg .edge-animation-fast{stroke-dasharray:9,5!important;stroke-dashoffset:900;animation:dash 20s linear infinite;stroke-linecap:round;}#my-svg .error-icon{fill:#f7f9fc;}#my-svg .error-text{fill:#080603;stroke:#080603;}#my-svg .edge-thickness-normal{stroke-width:1px;}#my-svg .edge-thickness-thick{stroke-width:3.5px;}#my-svg .edge-pattern-solid{stroke-dasharray:0;}#my-svg .edge-thickness-invisible{stroke-width:0;fill:none;}#my-svg .edge-pattern-dashed{stroke-dasharray:3;}#my-svg .edge-pattern-dotted{stroke-dasharray:2;}#my-svg .marker{fill:#334e68;stroke:#334e68;}#my-svg .marker.cross{stroke:#334e68;}#my-svg svg{font-family:Arial,Helvetica,sans-serif;font-size:16px;}#my-svg p{margin:0;}#my-svg .label{font-family:Arial,Helvetica,sans-serif;color:#17202a;}#my-svg .cluster-label text{fill:#080603;}#my-svg .cluster-label span{color:#080603;}#my-svg .cluster-label span p{background-color:transparent;}#my-svg .label text,#my-svg span{fill:#17202a;color:#17202a;}#my-svg .node rect,#my-svg .node circle,#my-svg .node ellipse,#my-svg .node polygon,#my-svg .node path{fill:#eef3f8;stroke:#52606d;stroke-width:1px;}#my-svg .rough-node .label text,#my-svg .node .label text,#my-svg .image-shape .label,#my-svg .icon-shape .label{text-anchor:middle;}#my-svg .node .katex path{fill:#000;stroke:#000;stroke-width:1px;}#my-svg .rough-node .label,#my-svg .node .label,#my-svg .image-shape .label,#my-svg .icon-shape .label{text-align:center;}#my-svg .node.clickable{cursor:pointer;}#my-svg .root .anchor path{fill:#334e68!important;stroke-width:0;stroke:#334e68;}#my-svg .arrowheadPath{fill:#000000;}#my-svg .edgePath .path{stroke:#334e68;stroke-width:1px;}#my-svg .flowchart-link{stroke:#334e68;fill:none;}#my-svg .edgeLabel{background-color:#e8f1ff;text-align:center;}#my-svg .edgeLabel p{background-color:#e8f1ff;}#my-svg .edgeLabel rect{opacity:0.5;background-color:#e8f1ff;fill:#e8f1ff;}#my-svg .labelBkg{background-color:rgba(232, 241, 255, 0.5);}#my-svg .cluster rect{fill:#f7f9fc;stroke:hsl(216, 5.4545454545%, 87.8431372549%);stroke-width:1px;}#my-svg .cluster text{fill:#080603;}#my-svg .cluster span{color:#080603;}#my-svg div.mermaidTooltip{position:absolute;text-align:center;max-width:200px;padding:2px;font-family:Arial,Helvetica,sans-serif;font-size:12px;background:#f7f9fc;border:1px solid hsl(216, 5.4545454545%, 87.8431372549%);border-radius:2px;pointer-events:none;z-index:100;}#my-svg .flowchartTitleText{text-anchor:middle;font-size:18px;fill:#17202a;}#my-svg rect.text{fill:none;stroke-width:0;}#my-svg .icon-shape,#my-svg .image-shape{background-color:#e8f1ff;text-align:center;}#my-svg .icon-shape p,#my-svg .image-shape p{background-color:#e8f1ff;padding:2px;}#my-svg .icon-shape .label rect,#my-svg .image-shape .label rect{opacity:0.5;background-color:#e8f1ff;fill:#e8f1ff;}#my-svg .label-icon{display:inline-block;height:1em;overflow:visible;vertical-align:-0.125em;}#my-svg .node .label-icon path{fill:currentColor;stroke:revert;stroke-width:revert;}#my-svg .node .neo-node{stroke:#52606d;}#my-svg [data-look="neo"].node rect,#my-svg [data-look="neo"].cluster rect,#my-svg [data-look="neo"].node polygon{stroke:url(#my-svg-gradient);filter:drop-shadow( 1px 2px 2px rgba(185,185,185,1));}#my-svg [data-look="neo"].swimlane.cluster rect{filter:none;}#my-svg [data-look="neo"].node path{stroke:url(#my-svg-gradient);stroke-width:1px;}#my-svg [data-look="neo"].node .outer-path{filter:drop-shadow( 1px 2px 2px rgba(185,185,185,1));}#my-svg [data-look="neo"].node .neo-line path{stroke:#52606d;filter:none;}#my-svg [data-look="neo"].node circle{stroke:url(#my-svg-gradient);filter:drop-shadow( 1px 2px 2px rgba(185,185,185,1));}#my-svg [data-look="neo"].node circle .state-start{fill:#000000;}#my-svg [data-look="neo"].icon-shape .icon{fill:url(#my-svg-gradient);filter:drop-shadow( 1px 2px 2px rgba(185,185,185,1));}#my-svg [data-look="neo"].icon-shape .icon-neo path{stroke:url(#my-svg-gradient);filter:drop-shadow( 1px 2px 2px rgba(185,185,185,1));}#my-svg :root{--mermaid-font-family:"trebuchet ms",verdana,arial,sans-serif;}</style><g><marker id="my-svg_flowchart-v2-pointEnd" class="marker flowchart-v2" viewBox="0 0 10 10" refX="5" refY="5" markerUnits="userSpaceOnUse" markerWidth="8" markerHeight="8" orient="auto"><path d="M 0 0 L 10 5 L 0 10 z" class="arrowMarkerPath" style="stroke-width: 1; stroke-dasharray: 1, 0;"/></marker><marker id="my-svg_flowchart-v2-pointStart" class="marker flowchart-v2" viewBox="0 0 10 10" refX="4.5" refY="5" markerUnits="userSpaceOnUse" markerWidth="8" markerHeight="8" orient="auto"><path d="M 0 5 L 10 10 L 10 0 z" class="arrowMarkerPath" style="stroke-width: 1; stroke-dasharray: 1, 0;"/></marker><marker id="my-svg_flowchart-v2-pointEnd-margin" class="marker flowchart-v2" viewBox="0 0 11.5 14" refX="11.5" refY="7" markerUnits="userSpaceOnUse" markerWidth="10.5" markerHeight="14" orient="auto"><path d="M 0 0 L 11.5 7 L 0 14 z" class="arrowMarkerPath" style="stroke-width: 0; stroke-dasharray: 1, 0;"/></marker><marker id="my-svg_flowchart-v2-pointStart-margin" class="marker flowchart-v2" viewBox="0 0 11.5 14" refX="1" refY="7" markerUnits="userSpaceOnUse" markerWidth="11.5" markerHeight="14" orient="auto"><polygon points="0,7 11.5,14 11.5,0" class="arrowMarkerPath" style="stroke-width: 0; stroke-dasharray: 1, 0;"/></marker><marker id="my-svg_flowchart-v2-circleEnd" class="marker flowchart-v2" viewBox="0 0 10 10" refX="11" refY="5" markerUnits="userSpaceOnUse" markerWidth="11" markerHeight="11" orient="auto"><circle cx="5" cy="5" r="5" class="arrowMarkerPath" style="stroke-width: 1; stroke-dasharray: 1, 0;"/></marker><marker id="my-svg_flowchart-v2-circleStart" class="marker flowchart-v2" viewBox="0 0 10 10" refX="-1" refY="5" markerUnits="userSpaceOnUse" markerWidth="11" markerHeight="11" orient="auto"><circle cx="5" cy="5" r="5" class="arrowMarkerPath" style="stroke-width: 1; stroke-dasharray: 1, 0;"/></marker><marker id="my-svg_flowchart-v2-circleEnd-margin" class="marker flowchart-v2" viewBox="0 0 10 10" refY="5" refX="12.25" markerUnits="userSpaceOnUse" markerWidth="14" markerHeight="14" orient="auto"><circle cx="5" cy="5" r="5" class="arrowMarkerPath" style="stroke-width: 0; stroke-dasharray: 1, 0;"/></marker><marker id="my-svg_flowchart-v2-circleStart-margin" class="marker flowchart-v2" viewBox="0 0 10 10" refX="-2" refY="5" markerUnits="userSpaceOnUse" markerWidth="14" markerHeight="14" orient="auto"><circle cx="5" cy="5" r="5" class="arrowMarkerPath" style="stroke-width: 0; stroke-dasharray: 1, 0;"/></marker><marker id="my-svg_flowchart-v2-crossEnd" class="marker cross flowchart-v2" viewBox="0 0 11 11" refX="12" refY="5.2" markerUnits="userSpaceOnUse" markerWidth="11" markerHeight="11" orient="auto"><path d="M 1,1 l 9,9 M 10,1 l -9,9" class="arrowMarkerPath" style="stroke-width: 2; stroke-dasharray: 1, 0;"/></marker><marker id="my-svg_flowchart-v2-crossStart" class="marker cross flowchart-v2" viewBox="0 0 11 11" refX="-1" refY="5.2" markerUnits="userSpaceOnUse" markerWidth="11" markerHeight="11" orient="auto"><path d="M 1,1 l 9,9 M 10,1 l -9,9" class="arrowMarkerPath" style="stroke-width: 2; stroke-dasharray: 1, 0;"/></marker><marker id="my-svg_flowchart-v2-crossEnd-margin" class="marker cross flowchart-v2" viewBox="0 0 15 15" refX="17.7" refY="7.5" markerUnits="userSpaceOnUse" markerWidth="12" markerHeight="12" orient="auto"><path d="M 1,1 L 14,14 M 1,14 L 14,1" class="arrowMarkerPath" style="stroke-width: 2.5;"/></marker><marker id="my-svg_flowchart-v2-crossStart-margin" class="marker cross flowchart-v2" viewBox="0 0 15 15" refX="-3.5" refY="7.5" markerUnits="userSpaceOnUse" markerWidth="12" markerHeight="12" orient="auto"><path d="M 1,1 L 14,14 M 1,14 L 14,1" class="arrowMarkerPath" style="stroke-width: 2.5; stroke-dasharray: 1, 0;"/></marker><g class="root"><g class="clusters"><g class="cluster" id="my-svg-Runtime" data-look="classic"><rect style="" x="1188.796875" y="8" width="1119.484375" height="333.13671875"/><g class="cluster-label" transform="translate(1657.8203125, 8)"><g><rect class="background" style="stroke: none"/><text y="-10.1" style=""><tspan class="text-outer-tspan row" x="0" y="-0.1em" dy="1.1em"><tspan font-style="normal" class="text-inner-tspan" font-weight="normal">Render</tspan><tspan font-style="normal" class="text-inner-tspan" font-weight="normal"> read-only</tspan><tspan font-style="normal" class="text-inner-tspan" font-weight="normal"> runtime</tspan></tspan></text></g></g></g><g class="cluster" id="my-svg-Data" data-look="classic"><rect style="" x="2026.28125" y="439.4234809875488" width="282" height="316.8529510498047"/><g class="cluster-label" transform="translate(2054.3125, 439.4234809875488)"><g><rect class="background" style="stroke: none"/><text y="-10.1" style=""><tspan class="text-outer-tspan row" x="0" y="-0.1em" dy="1.1em"><tspan font-style="normal" class="text-inner-tspan" font-weight="normal">Hosted</tspan><tspan font-style="normal" class="text-inner-tspan" font-weight="normal"> synthetic-data</tspan><tspan font-style="normal" class="text-inner-tspan" font-weight="normal"> boundary</tspan></tspan></text></g></g></g><g class="cluster" id="my-svg-Offline" data-look="classic"><rect style="" x="812.75" y="361.13671875" width="1031.21875" height="386.7132377624512"/><g class="cluster-label" transform="translate(1186.1796875, 361.13671875)"><g><rect class="background" style="stroke: none"/><text y="-10.1" style=""><tspan class="text-outer-tspan row" x="0" y="-0.1em" dy="1.1em"><tspan font-style="normal" class="text-inner-tspan" font-weight="normal">Offline</tspan><tspan font-style="normal" class="text-inner-tspan" font-weight="normal"> validation</tspan><tspan font-style="normal" class="text-inner-tspan" font-weight="normal"> and</tspan><tspan font-style="normal" class="text-inner-tspan" font-weight="normal"> indexing</tspan><tspan font-style="normal" class="text-inner-tspan" font-weight="normal"> boundary</tspan></tspan></text></g></g></g></g><g class="edgePaths"><path d="M994.489,141.842L1016.87,152.645C1039.251,163.447,1084.012,185.053,1116.397,195.855C1148.781,206.658,1168.789,206.658,1183.564,206.658C1198.339,206.658,1207.88,206.658,1212.651,206.658L1217.422,206.658" id="my-svg-L_Reviewer_API_0" class="edge-thickness-normal edge-pattern-solid edge-thickness-normal edge-pattern-solid flowchart-link" style=";" data-edge="true" data-et="edge" data-id="L_Reviewer_API_0" data-points="W3sieCI6OTk0LjQ4OTM0OTY5ODMzNzQsInkiOjE0MS44NDE3OTY4NzV9LHsieCI6MTEyOC43NzM0Mzc1LCJ5IjoyMDYuNjU4MjAzMTI1fSx7IngiOjExODguNzk2ODc1LCJ5IjoyMDYuNjU4MjAzMTI1fSx7IngiOjEyMjEuNDIxODc1LCJ5IjoyMDYuNjU4MjAzMTI1fV0=" data-look="classic" marker-end="url(#my-svg_flowchart-v2-pointEnd)"/><path d="M1407.084,233.658L1425.3,240.022C1443.517,246.386,1479.95,259.114,1509.431,265.478C1538.911,271.842,1561.44,271.842,1572.704,271.842L1583.969,271.842" id="my-svg-L_API_Hybrid_0" class="edge-thickness-normal edge-pattern-solid edge-thickness-normal edge-pattern-solid flowchart-link" style=";" data-edge="true" data-et="edge" data-id="L_API_Hybrid_0" data-points="W3sieCI6MTQwNy4wODM1MDUzMTEwMjA2LCJ5IjoyMzMuNjU4MjAzMTI1fSx7IngiOjE1MTYuMzgyODEyNSwieSI6MjcxLjg0MTc5Njg3NX0seyJ4IjoxNTg3Ljk2ODc1LCJ5IjoyNzEuODQxNzk2ODc1fV0=" data-look="classic" marker-end="url(#my-svg_flowchart-v2-pointEnd)"/><path d="M1727.982,232.842L1747.313,202.701C1766.644,172.561,1805.307,112.281,1839.83,82.14C1874.354,52,1904.74,52,1935.125,52C1965.51,52,1995.896,52,2014.765,52.626C2033.633,53.251,2040.986,54.503,2044.662,55.129L2048.338,55.754" id="my-svg-L_Hybrid_Views_0" class="edge-thickness-normal edge-pattern-solid edge-thickness-normal edge-pattern-solid flowchart-link" style=";" data-edge="true" data-et="edge" data-id="L_Hybrid_Views_0" data-points="W3sieCI6MTcyNy45ODIxOTE4MzkzOTEsInkiOjIzMi44NDE3OTY4NzV9LHsieCI6MTg0My45Njg3NSwieSI6NTJ9LHsieCI6MTkzNS4xMjUsInkiOjUyfSx7IngiOjIwMjYuMjgxMjUsInkiOjUyfSx7IngiOjIwNTIuMjgxMjUsInkiOjU2LjQyNTUzMTkxNDg5MzYyfV0=" data-look="classic" marker-end="url(#my-svg_flowchart-v2-pointEnd)"/><path d="M2052.281,84.156L2047.948,84.463C2043.615,84.771,2034.948,85.385,2015.422,85.693C1995.896,86,1965.51,86,1935.125,86C1904.74,86,1874.354,86,1835.661,86C1796.969,86,1749.969,86,1695.371,86C1640.773,86,1578.578,86,1516.383,86C1454.188,86,1391.992,86,1337.395,86C1282.797,86,1235.797,86,1202.293,86C1168.789,86,1148.781,86,1124.218,89.078C1099.655,92.155,1070.536,98.31,1055.977,101.388L1041.418,104.466" id="my-svg-L_Views_Reviewer_0" class="edge-thickness-normal edge-pattern-solid edge-thickness-normal edge-pattern-solid flowchart-link" style=";" data-edge="true" data-et="edge" data-id="L_Views_Reviewer_0" data-points="W3sieCI6MjA1Mi4yODEyNSwieSI6ODQuMTU2MDI4MzY4Nzk0MzJ9LHsieCI6MjAyNi4yODEyNSwieSI6ODZ9LHsieCI6MTkzNS4xMjUsInkiOjg2fSx7IngiOjE4NDMuOTY4NzUsInkiOjg2fSx7IngiOjE3MDIuOTY4NzUsInkiOjg2fSx7IngiOjE1MTYuMzgyODEyNSwieSI6ODZ9LHsieCI6MTMyOS43OTY4NzUsInkiOjg2fSx7IngiOjExODguNzk2ODc1LCJ5Ijo4Nn0seyJ4IjoxMTI4Ljc3MzQzNzUsInkiOjg2fSx7IngiOjEwMzcuNTA0MTE2MTY1OTk5NCwieSI6MTA1LjI5Mjc4MjM5Mjk4NTg0fV0=" data-look="classic" marker-end="url(#my-svg_flowchart-v2-pointEnd)"/><path d="M461.852,421.137L510.997,421.137C560.143,421.137,658.435,421.137,716.918,421.137C775.401,421.137,794.076,421.137,814.711,429.371C835.346,437.605,857.943,454.073,869.241,462.307L880.539,470.541" id="my-svg-L_Corpus_Validate_0" class="edge-thickness-normal edge-pattern-solid edge-thickness-normal edge-pattern-solid flowchart-link" style=";" data-edge="true" data-et="edge" data-id="L_Corpus_Validate_0" data-points="W3sieCI6NDYxLjg1MTU2MjUsInkiOjQyMS4xMzY3MTg3NX0seyJ4Ijo3NTYuNzI2NTYyNSwieSI6NDIxLjEzNjcxODc1fSx7IngiOjgxMi43NSwieSI6NDIxLjEzNjcxODc1fSx7IngiOjg4My43NzE0ODU4OTg2ODQxLCJ5Ijo0NzIuODk2ODMxNTEyNDUxMn1d" data-look="classic" marker-end="url(#my-svg_flowchart-v2-pointEnd)"/><path d="M1068.75,526.494L1078.754,526.72C1088.758,526.946,1108.766,527.398,1128.773,527.624C1148.781,527.85,1168.789,527.85,1195.077,543.562C1221.364,559.273,1253.931,590.696,1270.215,606.408L1286.498,622.119" id="my-svg-L_Validate_Extract_0" class="edge-thickness-normal edge-pattern-solid edge-thickness-normal edge-pattern-solid flowchart-link" style=";" data-edge="true" data-et="edge" data-id="L_Validate_Extract_0" data-points="W3sieCI6MTA2OC43NSwieSI6NTI2LjQ5NDI1MTUwMDg0NTZ9LHsieCI6MTEyOC43NzM0Mzc1LCJ5Ijo1MjcuODQ5OTU2NTEyNDUxMn0seyJ4IjoxMTg4Ljc5Njg3NSwieSI6NTI3Ljg0OTk1NjUxMjQ1MTJ9LHsieCI6MTI4OS4zNzY5ODI5NTkxMTMzLCJ5Ijo2MjQuODk2ODMxNTEyNDUxMn1d" data-look="classic" marker-end="url(#my-svg_flowchart-v2-pointEnd)"/><path d="M1381.678,624.897L1404.129,608.02C1426.58,591.143,1471.481,557.39,1505.196,540.513C1538.911,523.637,1561.44,523.637,1572.704,523.637L1583.969,523.637" id="my-svg-L_Extract_Embed_0" class="edge-thickness-normal edge-pattern-solid edge-thickness-normal edge-pattern-solid flowchart-link" style=";" data-edge="true" data-et="edge" data-id="L_Extract_Embed_0" data-points="W3sieCI6MTM4MS42Nzc5OTM3MjQyMTEzLCJ5Ijo2MjQuODk2ODMxNTEyNDUxMn0seyJ4IjoxNTE2LjM4MjgxMjUsInkiOjUyMy42MzY3MTg3NX0seyJ4IjoxNTg3Ljk2ODc1LCJ5Ijo1MjMuNjM2NzE4NzV9XQ==" data-look="classic" marker-end="url(#my-svg_flowchart-v2-pointEnd)"/><path d="M1817.969,523.637L1822.302,523.637C1826.635,523.637,1835.302,523.637,1854.828,523.637C1874.354,523.637,1904.74,523.637,1935.125,523.637C1965.51,523.637,1995.896,523.637,2016.005,523.637C2036.115,523.637,2045.948,523.637,2050.865,523.637L2055.781,523.637" id="my-svg-L_Embed_Vector_0" class="edge-thickness-normal edge-pattern-solid edge-thickness-normal edge-pattern-solid flowchart-link" style=";" data-edge="true" data-et="edge" data-id="L_Embed_Vector_0" data-points="W3sieCI6MTgxNy45Njg3NSwieSI6NTIzLjYzNjcxODc1fSx7IngiOjE4NDMuOTY4NzUsInkiOjUyMy42MzY3MTg3NX0seyJ4IjoxOTM1LjEyNSwieSI6NTIzLjYzNjcxODc1fSx7IngiOjIwMjYuMjgxMjUsInkiOjUyMy42MzY3MTg3NX0seyJ4IjoyMDU5Ljc4MTI1LCJ5Ijo1MjMuNjM2NzE4NzV9XQ==" data-look="classic" marker-end="url(#my-svg_flowchart-v2-pointEnd)"/><path d="M1444.797,668.93L1456.728,669.452C1468.659,669.974,1492.521,671.019,1535.549,671.541C1578.578,672.063,1640.773,672.063,1695.371,672.063C1749.969,672.063,1796.969,672.063,1835.661,672.063C1874.354,672.063,1904.74,672.063,1935.125,672.063C1965.51,672.063,1995.896,672.063,2016.005,672.063C2036.115,672.063,2045.948,672.063,2050.865,672.063L2055.781,672.063" id="my-svg-L_Extract_Graph_0" class="edge-thickness-normal edge-pattern-solid edge-thickness-normal edge-pattern-solid flowchart-link" style=";" data-edge="true" data-et="edge" data-id="L_Extract_Graph_0" data-points="W3sieCI6MTQ0NC43OTY4NzUsInkiOjY2OC45MzAwNzEwNDk0OTc3fSx7IngiOjE1MTYuMzgyODEyNSwieSI6NjcyLjA2MzE5NDI3NDkwMjN9LHsieCI6MTcwMi45Njg3NSwieSI6NjcyLjA2MzE5NDI3NDkwMjN9LHsieCI6MTg0My45Njg3NSwieSI6NjcyLjA2MzE5NDI3NDkwMjN9LHsieCI6MTkzNS4xMjUsInkiOjY3Mi4wNjMxOTQyNzQ5MDIzfSx7IngiOjIwMjYuMjgxMjUsInkiOjY3Mi4wNjMxOTQyNzQ5MDIzfSx7IngiOjIwNTkuNzgxMjUsInkiOjY3Mi4wNjMxOTQyNzQ5MDIzfV0=" data-look="classic" marker-end="url(#my-svg_flowchart-v2-pointEnd)"/><path d="M484.352,627.85L529.747,627.85C575.143,627.85,665.935,627.85,720.668,627.85C775.401,627.85,794.076,627.85,814.847,619.42C835.618,610.99,858.487,594.13,869.921,585.7L881.355,577.27" id="my-svg-L_Files_Validate_0" class="edge-thickness-normal edge-pattern-dotted edge-thickness-normal edge-pattern-solid flowchart-link" style=";" data-edge="true" data-et="edge" data-id="L_Files_Validate_0" data-points="W3sieCI6NDg0LjM1MTU2MjUsInkiOjYyNy44NDk5NTY1MTI0NTEyfSx7IngiOjc1Ni43MjY1NjI1LCJ5Ijo2MjcuODQ5OTU2NTEyNDUxMn0seyJ4Ijo4MTIuNzUsInkiOjYyNy44NDk5NTY1MTI0NTEyfSx7IngiOjg4NC41NzQ1OTA0MTAzNDEyLCJ5Ijo1NzQuODk2ODMxNTEyNDUxMn1d" data-look="classic" marker-end="url(#my-svg_flowchart-v2-pointEnd)"/><path d="M1817.969,284.316L1822.302,284.786C1826.635,285.256,1835.302,286.197,1854.828,286.667C1874.354,287.137,1904.74,287.137,1935.125,287.137C1965.51,287.137,1995.896,287.137,2028.762,316.904C2061.628,346.672,2096.975,406.208,2114.648,435.976L2132.321,465.743" id="my-svg-L_Hybrid_Vector_0" class="edge-thickness-normal edge-pattern-solid edge-thickness-normal edge-pattern-solid flowchart-link" style=";" data-edge="true" data-et="edge" data-id="L_Hybrid_Vector_0" data-points="W3sieCI6MTgxNy45Njg3NSwieSI6Mjg0LjMxNjM3ODU0NjA5OTN9LHsieCI6MTg0My45Njg3NSwieSI6Mjg3LjEzNjcxODc1fSx7IngiOjE5MzUuMTI1LCJ5IjoyODcuMTM2NzE4NzV9LHsieCI6MjAyNi4yODEyNSwieSI6Mjg3LjEzNjcxODc1fSx7IngiOjIxMzQuMzYzNDIxMTQzNzM5MywieSI6NDY5LjE4Mjg4NTgyMDUxMjc1fV0=" data-look="classic" marker-end="url(#my-svg_flowchart-v2-pointEnd)"/><path d="M1817.969,300.628L1822.302,301.713C1826.635,302.798,1835.302,304.967,1854.828,306.052C1874.354,307.137,1904.74,307.137,1935.125,307.137C1965.51,307.137,1995.896,307.137,2030.793,358.186C2065.69,409.235,2105.099,511.334,2124.803,562.383L2144.508,613.433" id="my-svg-L_Hybrid_Graph_0" class="edge-thickness-normal edge-pattern-solid edge-thickness-normal edge-pattern-solid flowchart-link" style=";" data-edge="true" data-et="edge" data-id="L_Hybrid_Graph_0" data-points="W3sieCI6MTgxNy45Njg3NSwieSI6MzAwLjYyODQzNTI4MzY4Nzk2fSx7IngiOjE4NDMuOTY4NzUsInkiOjMwNy4xMzY3MTg3NX0seyJ4IjoxOTM1LjEyNSwieSI6MzA3LjEzNjcxODc1fSx7IngiOjIwMjYuMjgxMjUsInkiOjMwNy4xMzY3MTg3NX0seyJ4IjoyMTQ1Ljk0ODAwMzMxNDMyNzcsInkiOjYxNy4xNjQzNzQxNzk4ODMzfV0=" data-look="classic" marker-end="url(#my-svg_flowchart-v2-pointEnd)"/><path d="M1772.978,232.842L1784.81,226.251C1796.642,219.66,1820.305,206.477,1847.33,199.886C1874.354,193.295,1904.74,193.295,1935.125,193.295C1965.51,193.295,1995.896,193.295,2031.949,222.311C2068.002,251.326,2109.722,309.358,2130.582,338.373L2151.443,367.389" id="my-svg-L_Hybrid_Model_0" class="edge-thickness-normal edge-pattern-dotted edge-thickness-normal edge-pattern-solid flowchart-link" style=";" data-edge="true" data-et="edge" data-id="L_Hybrid_Model_0" data-points="W3sieCI6MTc3Mi45Nzc5MDA1ODY4MzEsInkiOjIzMi44NDE3OTY4NzV9LHsieCI6MTg0My45Njg3NSwieSI6MTkzLjI5NDkyMTg3NX0seyJ4IjoxOTM1LjEyNSwieSI6MTkzLjI5NDkyMTg3NX0seyJ4IjoyMDI2LjI4MTI1LCJ5IjoxOTMuMjk0OTIxODc1fSx7IngiOjIxNTMuNzc3NjA5MTg3MDg0LCJ5IjozNzAuNjM2NzE4NzV9XQ==" data-look="classic" marker-end="url(#my-svg_flowchart-v2-pointEnd)"/><path d="M1068.75,666.494L1078.754,666.72C1088.758,666.946,1108.766,667.398,1128.773,667.624C1148.781,667.85,1168.789,667.85,1182.46,667.747C1196.131,667.644,1203.465,667.439,1207.132,667.336L1210.798,667.233" id="my-svg-L_Evaluate_Extract_0" class="edge-thickness-normal edge-pattern-dotted edge-thickness-normal edge-pattern-solid flowchart-link" style=";" data-edge="true" data-et="edge" data-id="L_Evaluate_Extract_0" data-points="W3sieCI6MTA2OC43NSwieSI6NjY2LjQ5NDI1MTUwMDg0NTZ9LHsieCI6MTEyOC43NzM0Mzc1LCJ5Ijo2NjcuODQ5OTU2NTEyNDUxMn0seyJ4IjoxMTg4Ljc5Njg3NSwieSI6NjY3Ljg0OTk1NjUxMjQ1MTJ9LHsieCI6MTIxNC43OTY4NzUsInkiOjY2Ny4xMjEwMTE0NzY5OTAxfV0=" data-look="classic" marker-end="url(#my-svg_flowchart-v2-pointEnd)"/><path d="M990.013,612.897L1013.14,580.371C1036.266,547.846,1082.52,482.795,1115.651,450.269C1148.781,417.743,1168.789,417.743,1202.293,417.743C1235.797,417.743,1282.797,417.743,1337.395,417.743C1391.992,417.743,1454.188,417.743,1507.545,400.337C1560.903,382.931,1605.423,348.118,1627.683,330.712L1649.943,313.306" id="my-svg-L_Evaluate_Hybrid_0" class="edge-thickness-normal edge-pattern-dotted edge-thickness-normal edge-pattern-solid flowchart-link" style=";" data-edge="true" data-et="edge" data-id="L_Evaluate_Hybrid_0" data-points="W3sieCI6OTkwLjAxMjcyMDM1Mjg4MzEsInkiOjYxMi44OTY4MzE1MTI0NTEyfSx7IngiOjExMjguNzczNDM3NSwieSI6NDE3Ljc0MzMzNzYzMTIyNTZ9LHsieCI6MTE4OC43OTY4NzUsInkiOjQxNy43NDMzMzc2MzEyMjU2fSx7IngiOjEzMjkuNzk2ODc1LCJ5Ijo0MTcuNzQzMzM3NjMxMjI1Nn0seyJ4IjoxNTE2LjM4MjgxMjUsInkiOjQxNy43NDMzMzc2MzEyMjU2fSx7IngiOjE2NTMuMDkzNjY2MjYzNTA3NywieSI6MzEwLjg0MTc5Njg3NX1d" data-look="classic" marker-end="url(#my-svg_flowchart-v2-pointEnd)"/><path d="M1587.969,182.134L1576.038,184.861C1564.107,187.589,1540.245,193.045,1515.945,196.313C1491.645,199.582,1466.906,200.663,1454.537,201.204L1442.168,201.745" id="my-svg-L_Observe_API_0" class="edge-thickness-normal edge-pattern-dotted edge-thickness-normal edge-pattern-solid flowchart-link" style=";" data-edge="true" data-et="edge" data-id="L_Observe_API_0" data-points="W3sieCI6MTU4Ny45Njg3NSwieSI6MTgyLjEzMzY2NzY2MTc1MjA3fSx7IngiOjE1MTYuMzgyODEyNSwieSI6MTk4LjV9LHsieCI6MTQzOC4xNzE4NzUsInkiOjIwMS45MTk2NjEzMjc0ODcxMn1d" data-look="classic" marker-end="url(#my-svg_flowchart-v2-pointEnd)"/><path d="M1400.346,179.658L1419.686,172.257C1439.025,164.855,1477.704,150.053,1508.312,143.895C1538.92,137.737,1561.456,140.224,1572.725,141.468L1583.993,142.712" id="my-svg-L_API_Observe_0" class="edge-thickness-normal edge-pattern-dotted edge-thickness-normal edge-pattern-solid flowchart-link" style=";" data-edge="true" data-et="edge" data-id="L_API_Observe_0" data-points="W3sieCI6MTQwMC4zNDY0NzcwMzQ5NTUzLCJ5IjoxNzkuNjU4MjAzMTI1fSx7IngiOjE1MTYuMzgyODEyNSwieSI6MTM1LjI1fSx7IngiOjE1ODcuOTY4NzUsInkiOjE0My4xNTAyOTAzNjQwOTI2NX1d" data-look="classic" marker-end="url(#my-svg_flowchart-v2-pointEnd)"/></g><g class="edgeLabels"><g class="edgeLabel"><g class="label" data-id="L_Reviewer_API_0" transform="translate(0, 0)"><text y="-10.1" text-anchor="middle"><tspan class="text-outer-tspan row" x="0" y="-0.1em" dy="1.1em" text-anchor="middle"/></text></g></g><g><rect class="background" style="stroke: none"/></g><g class="edgeLabel"><g class="label" data-id="L_API_Hybrid_0" transform="translate(0, 0)"><text y="-10.1" text-anchor="middle"><tspan class="text-outer-tspan row" x="0" y="-0.1em" dy="1.1em" text-anchor="middle"/></text></g></g><g><rect class="background" style="stroke: none"/></g><g class="edgeLabel"><g class="label" data-id="L_Hybrid_Views_0" transform="translate(0, 0)"><text y="-10.1" text-anchor="middle"><tspan class="text-outer-tspan row" x="0" y="-0.1em" dy="1.1em" text-anchor="middle"/></text></g></g><g><rect class="background" style="stroke: none"/></g><g class="edgeLabel"><g class="label" data-id="L_Views_Reviewer_0" transform="translate(0, 0)"><text y="-10.1" text-anchor="middle"><tspan class="text-outer-tspan row" x="0" y="-0.1em" dy="1.1em" text-anchor="middle"/></text></g></g><g><rect class="background" style="stroke: none"/></g><g class="edgeLabel"><g class="label" data-id="L_Corpus_Validate_0" transform="translate(0, 0)"><text y="-10.1" text-anchor="middle"><tspan class="text-outer-tspan row" x="0" y="-0.1em" dy="1.1em" text-anchor="middle"/></text></g></g><g><rect class="background" style="stroke: none"/></g><g class="edgeLabel"><g class="label" data-id="L_Validate_Extract_0" transform="translate(0, 0)"><text y="-10.1" text-anchor="middle"><tspan class="text-outer-tspan row" x="0" y="-0.1em" dy="1.1em" text-anchor="middle"/></text></g></g><g><rect class="background" style="stroke: none"/></g><g class="edgeLabel"><g class="label" data-id="L_Extract_Embed_0" transform="translate(0, 0)"><text y="-10.1" text-anchor="middle"><tspan class="text-outer-tspan row" x="0" y="-0.1em" dy="1.1em" text-anchor="middle"/></text></g></g><g><rect class="background" style="stroke: none"/></g><g class="edgeLabel"><g class="label" data-id="L_Embed_Vector_0" transform="translate(0, 0)"><text y="-10.1" text-anchor="middle"><tspan class="text-outer-tspan row" x="0" y="-0.1em" dy="1.1em" text-anchor="middle"/></text></g></g><g><rect class="background" style="stroke: none"/></g><g class="edgeLabel"><g class="label" data-id="L_Extract_Graph_0" transform="translate(0, 0)"><text y="-10.1" text-anchor="middle"><tspan class="text-outer-tspan row" x="0" y="-0.1em" dy="1.1em" text-anchor="middle"/></text></g></g><g><rect class="background" style="stroke: none"/></g><g class="edgeLabel" transform="translate(756.7265625, 627.8499565124512)"><g class="label" data-id="L_Files_Validate_0" transform="translate(0, -10.58984375)"><g><rect class="background" style="" x="-30.0234375" y="0" width="60.046875" height="21.1796875"/><text y="-10.1" text-anchor="middle" style=""><tspan class="text-outer-tspan row" x="0" y="-0.1em" dy="1.1em" text-anchor="middle"><tspan font-style="normal" class="text-inner-tspan" font-weight="normal">optional</tspan></tspan></text></g></g></g><g class="edgeLabel"><g class="label" data-id="L_Hybrid_Vector_0" transform="translate(0, 0)"><text y="-10.1" text-anchor="middle"><tspan class="text-outer-tspan row" x="0" y="-0.1em" dy="1.1em" text-anchor="middle"/></text></g></g><g><rect class="background" style="stroke: none"/></g><g class="edgeLabel"><g class="label" data-id="L_Hybrid_Graph_0" transform="translate(0, 0)"><text y="-10.1" text-anchor="middle"><tspan class="text-outer-tspan row" x="0" y="-0.1em" dy="1.1em" text-anchor="middle"/></text></g></g><g><rect class="background" style="stroke: none"/></g><g class="edgeLabel" transform="translate(1935.125, 193.294921875)"><g class="label" data-id="L_Hybrid_Model_0" transform="translate(0, -10.58984375)"><g><rect class="background" style="" x="-65.15625" y="0" width="130.3125" height="21.1796875"/><text y="-10.1" text-anchor="middle" style=""><tspan class="text-outer-tspan row" x="0" y="-0.1em" dy="1.1em" text-anchor="middle"><tspan font-style="normal" class="text-inner-tspan" font-weight="normal">optional</tspan><tspan font-style="normal" class="text-inner-tspan" font-weight="normal"> inference</tspan></tspan></text></g></g></g><g class="edgeLabel" transform="translate(1128.7734375, 667.8499565124512)"><g class="label" data-id="L_Evaluate_Extract_0" transform="translate(0, -10.5)"><g><rect class="background" style="" x="-34.0234375" y="0" width="68.046875" height="21"/><text y="-10.1" text-anchor="middle" style=""><tspan class="text-outer-tspan row" x="0" y="-0.1em" dy="1.1em" text-anchor="middle"><tspan font-style="normal" class="text-inner-tspan" font-weight="normal">evidence</tspan></tspan></text></g></g></g><g class="edgeLabel" transform="translate(1329.796875, 417.7433376312256)"><g class="label" data-id="L_Evaluate_Hybrid_0" transform="translate(0, -10.68359375)"><g><rect class="background" style="" x="-65.5859375" y="0" width="131.171875" height="21.3671875"/><text y="-10.1" text-anchor="middle" style=""><tspan class="text-outer-tspan row" x="0" y="-0.1em" dy="1.1em" text-anchor="middle"><tspan font-style="normal" class="text-inner-tspan" font-weight="normal">regression</tspan><tspan font-style="normal" class="text-inner-tspan" font-weight="normal"> control</tspan></tspan></text></g></g></g><g class="edgeLabel" transform="translate(1516.3828125, 198.5)"><g class="label" data-id="L_Observe_API_0" transform="translate(0, -10.68359375)"><g><rect class="background" style="" x="-39.3515625" y="0" width="78.703125" height="21.3671875"/><text y="-10.1" text-anchor="middle" style=""><tspan class="text-outer-tspan row" x="0" y="-0.1em" dy="1.1em" text-anchor="middle"><tspan font-style="normal" class="text-inner-tspan" font-weight="normal">monitoring</tspan></tspan></text></g></g></g><g class="edgeLabel" transform="translate(1491.99611, 144.58302)"><g class="label" data-id="L_API_Observe_0" transform="translate(0, -10.5)"><g><rect class="background" style="" x="-45.5859375" y="0" width="91.171875" height="21"/><text y="-10.1" text-anchor="middle" style=""><tspan class="text-outer-tspan row" x="0" y="-0.1em" dy="1.1em" text-anchor="middle"><tspan font-style="normal" class="text-inner-tspan" font-weight="normal">audit</tspan><tspan font-style="normal" class="text-inner-tspan" font-weight="normal"> control</tspan></tspan></text></g></g></g></g><g class="nodes"><g class="root" transform="translate(0, 35.91981887817383)"><g class="clusters"><g class="cluster" id="my-svg-Legend" data-look="classic"><rect style="" x="8" y="8" width="692.703125" height="284.00366973876953"/><g class="cluster-label" transform="translate(327.65625, 8)"><g><rect class="background" style="stroke: none"/><text y="-10.1" style=""><tspan class="text-outer-tspan row" x="0" y="-0.1em" dy="1.1em"><tspan font-style="normal" class="text-inner-tspan" font-weight="normal">Legend</tspan></tspan></text></g></g></g></g><g class="edgePaths"><path d="M124.031,100.5L124.031,106.917C124.031,113.333,124.031,126.167,124.031,138.333C124.031,150.5,124.031,162,124.031,167.75L124.031,173.5" id="my-svg-L_L1_L2_0" class="edge-thickness-normal edge-pattern-solid edge-thickness-normal edge-pattern-solid flowchart-link" style=";" data-edge="true" data-et="edge" data-id="L_L1_L2_0" data-points="W3sieCI6MTI0LjAzMTI1LCJ5IjoxMDAuNX0seyJ4IjoxMjQuMDMxMjUsInkiOjEzOX0seyJ4IjoxMjQuMDMxMjUsInkiOjE3Ny41fV0=" data-look="classic" marker-end="url(#my-svg_flowchart-v2-pointEnd)"/><path d="M350.336,100.5L350.336,106.917C350.336,113.333,350.336,126.167,350.413,141.5C350.491,156.834,350.646,174.668,350.724,183.585L350.801,192.502" id="my-svg-L_L3_L4_0" class="edge-thickness-normal edge-pattern-dotted edge-thickness-normal edge-pattern-solid flowchart-link" style=";" data-edge="true" data-et="edge" data-id="L_L3_L4_0" data-points="W3sieCI6MzUwLjMzNTkzNzUsInkiOjEwMC41fSx7IngiOjM1MC4zMzU5Mzc1LCJ5IjoxMzl9LHsieCI6MzUwLjgzNTkzNzUsInkiOjE5Ni41MDE4MzQ4NjkzODQ3N31d" data-look="classic" marker-end="url(#my-svg_flowchart-v2-pointEnd)"/><path d="M580.656,100.5L580.656,106.917C580.656,113.333,580.656,126.167,580.656,140.167C580.656,154.167,580.656,169.335,580.656,176.918L580.656,184.502" id="my-svg-L_L5_L6_0" class="edge-thickness-normal edge-pattern-dotted edge-thickness-normal edge-pattern-solid flowchart-link" style=";" data-edge="true" data-et="edge" data-id="L_L5_L6_0" data-points="W3sieCI6NTgwLjY1NjI1LCJ5IjoxMDAuNX0seyJ4Ijo1ODAuNjU2MjUsInkiOjEzOX0seyJ4Ijo1ODAuNjU2MjUsInkiOjE4OC41MDE4MzQ4NjkzODQ3N31d" data-look="classic" marker-end="url(#my-svg_flowchart-v2-pointEnd)"/></g><g class="edgeLabels"><g class="edgeLabel"><g class="label" data-id="L_L1_L2_0" transform="translate(0, 0)"><text y="-10.1" text-anchor="middle"><tspan class="text-outer-tspan row" x="0" y="-0.1em" dy="1.1em" text-anchor="middle"/></text></g></g><g><rect class="background" style="stroke: none"/></g><g class="edgeLabel"><g class="label" data-id="L_L3_L4_0" transform="translate(0, 0)"><text y="-10.1" text-anchor="middle"><tspan class="text-outer-tspan row" x="0" y="-0.1em" dy="1.1em" text-anchor="middle"/></text></g></g><g><rect class="background" style="stroke: none"/></g><g class="edgeLabel"><g class="label" data-id="L_L5_L6_0" transform="translate(0, 0)"><text y="-10.1" text-anchor="middle"><tspan class="text-outer-tspan row" x="0" y="-0.1em" dy="1.1em" text-anchor="middle"/></text></g></g><g><rect class="background" style="stroke: none"/></g></g><g class="nodes"><g class="node default" id="my-svg-flowchart-L1-42" data-look="classic" transform="translate(124.03125, 73.5)"><rect class="basic label-container" style="" rx="5" ry="5" x="-87.03125" y="-27" width="174.0625" height="54"/><g class="label" style="" transform="translate(-72.03125, -12)"><rect/><foreignObject width="144.0625" height="24"><div xmlns="http://www.w3.org/1999/xhtml" style="display: table-cell; white-space: nowrap; line-height: 1.5; max-width: 200px; text-align: center;"><span class="nodeLabel"><p>Service / processing</p></span></div></foreignObject></g></g><g class="node default" id="my-svg-flowchart-L2-43" data-look="classic" transform="translate(124.03125, 215.50183486938477)"><path d="M0,12.334557659426256 a60.8671875,12.334557659426256 0,0,0 121.734375,0 a60.8671875,12.334557659426256 0,0,0 -121.734375,0 l0,51.33455765942625 a60.8671875,12.334557659426256 0,0,0 121.734375,0 l0,-51.33455765942625" class="basic label-container outer-path" style="" transform="translate(-60.8671875, -38.00183648913938)"/><g class="label" style="" transform="translate(-53.3671875, -2)"><rect/><foreignObject width="106.734375" height="24"><div xmlns="http://www.w3.org/1999/xhtml" style="display: table-cell; white-space: nowrap; line-height: 1.5; max-width: 200px; text-align: center;"><span class="nodeLabel"><p>Persistent data</p></span></div></foreignObject></g></g><g class="node default" id="my-svg-flowchart-L3-44" data-look="classic" transform="translate(350.3359375, 73.5)"><rect class="basic label-container" style="" rx="5" ry="5" x="-101.2734375" y="-27" width="202.546875" height="54"/><g class="label" style="" transform="translate(-86.2734375, -12)"><rect/><foreignObject width="172.546875" height="24"><div xmlns="http://www.w3.org/1999/xhtml" style="display: table-cell; white-space: nowrap; line-height: 1.5; max-width: 200px; text-align: center;"><span class="nodeLabel"><p>Optional / asynchronous</p></span></div></foreignObject></g></g><g class="node default" id="my-svg-flowchart-L4-45" data-look="classic" transform="translate(350.3359375, 215.50183486938477)"><polygon points="9.75,0 191.0625,0 200.8125,-19.5 191.0625,-39 9.75,-39 0,-19.5" class="label-container" transform="translate(-100.40625,19.5)"/><g class="label" style="" transform="translate(-83.15625, -12)"><rect/><foreignObject width="166.3125" height="24"><div xmlns="http://www.w3.org/1999/xhtml" style="display: table-cell; white-space: nowrap; line-height: 1.5; max-width: 200px; text-align: center;"><span class="nodeLabel"><p>External hosted service</p></span></div></foreignObject></g></g><g class="node default" id="my-svg-flowchart-L5-46" data-look="classic" transform="translate(580.65625, 73.5)"><rect class="basic label-container" style="" rx="5" ry="5" x="-91.046875" y="-27" width="182.09375" height="54"/><g class="label" style="" transform="translate(-76.046875, -12)"><rect/><foreignObject width="152.09375" height="24"><div xmlns="http://www.w3.org/1999/xhtml" style="display: table-cell; white-space: nowrap; line-height: 1.5; max-width: 200px; text-align: center;"><span class="nodeLabel"><p>Monitoring / evidence</p></span></div></foreignObject></g></g><g class="node default" id="my-svg-flowchart-L6-47" data-look="classic" transform="translate(580.65625, 215.50183486938477)"><rect class="basic label-container" style="" rx="5" ry="5" x="-57.2421875" y="-27" width="114.484375" height="54"/><g class="label" style="" transform="translate(-42.2421875, -12)"><rect/><foreignObject width="84.484375" height="24"><div xmlns="http://www.w3.org/1999/xhtml" style="display: table-cell; white-space: nowrap; line-height: 1.5; max-width: 200px; text-align: center;"><span class="nodeLabel"><p>Control flow</p></span></div></foreignObject></g></g></g></g><g class="node default" id="my-svg-flowchart-Reviewer-0" data-look="classic" transform="translate(953.75, 121.841796875)"><g class="basic label-container outer-path"><path d="M-73.796875 -19.5 C-28.911016492686045 -19.5, 15.97484201462791 -19.5, 73.796875 -19.5 C73.796875 -19.5, 73.796875 -19.5, 73.796875 -19.5 C74.0887998521174 -19.49063853818985, 74.38072470423482 -19.481277076379698, 75.0462442896239 -19.45993515863156 C75.35682513317843 -19.42997379818197, 75.66740597673295 -19.400012437732375, 76.29047965284786 -19.3399052695533 C76.6007699526599 -19.2897399402169, 76.91106025247194 -19.239574610880506, 77.52446825967675 -19.140403561325776 C77.79820853471861 -19.077924129869707, 78.07194880976047 -19.015444698413635, 78.74313938623538 -18.862249829261074 C79.15136566278551 -18.741090413204454, 79.55959193933563 -18.61993099714783, 79.9414852514606 -18.50658706670804 C80.28934060346086 -18.378573081632318, 80.63719595546112 -18.2505590965566, 81.1145815951478 -18.074876768247425 C81.37169242695435 -17.961061429928503, 81.62880325876091 -17.84724609160958, 82.25760791279238 -17.568892924097174 C82.48523275197896 -17.450141191294204, 82.71285759116553 -17.331389458491238, 83.36586726407678 -16.990714730406097 C83.68688135169195 -16.796114104005607, 84.0078954393071 -16.60151347760512, 84.4348055736057 -16.342718045390892 C84.68778577045123 -16.166250011407666, 84.94076596729677 -15.989781977424437, 85.46003034457871 -15.627565626425154 C85.79276065186765 -15.362222060687554, 86.12549095915661 -15.096878494949955, 86.43732870850187 -14.848196188198123 C86.76726553492192 -14.54855629209349, 87.09720236134197 -14.248916395988859, 87.36268473676799 -14.007812326905688 C87.66968914766525 -13.690805067123367, 87.97669355856252 -13.373797807341045, 88.23229594296865 -13.10986736009568 C88.50355919614938 -12.791226107593223, 88.77482244933012 -12.472584855090766, 89.04258890812658 -12.158051136245305 C89.24820712851434 -11.882541453130948, 89.45382534890209 -11.60703177001659, 89.79023396464063 -11.156274872382312 C90.04216371676657 -10.769243120506168, 90.29409346889251 -10.382211368630026, 90.47215887860425 -10.108655082055241 C90.61003577815609 -9.863840685350933, 90.74791267770793 -9.619026288646626, 91.0855614742735 -9.019496659696287 C91.24355682103068 -8.69141594159615, 91.40155216778786 -8.363335223496014, 91.62792114880834 -7.893275190886684 C91.7220476713833 -7.66078086031404, 91.81617419395825 -7.428286529741396, 92.09700922997033 -6.734618561215508 C92.23483968052017 -6.3194952044593995, 92.37267013107002 -5.904371847703291, 92.49089813421489 -5.548287939305138 C92.57754612773007 -5.217861586553793, 92.66419412124526 -4.887435233802449, 92.80796928754556 -4.339158212148133 C92.86388345269314 -4.052050791578299, 92.91979761784071 -3.7649433710084654, 93.04691977658177 -3.1121979531509023 C93.08985619328072 -2.7791915839883763, 93.13279260997966 -2.4461852148258503, 93.20676770250937 -1.872449005199798 C93.22790544423461 -1.5432116157512146, 93.24904318595983 -1.2139742263026312, 93.28685621591342 -0.6250057626472757 C93.28685621591342 -0.2737339052304247, 93.28685621591342 0.07753795218642634, 93.28685621591342 0.625005762647271 C93.2624592491661 1.0050082126138424, 93.23806228241878 1.385010662580414, 93.20676770250937 1.8724490051997846 C93.1666197260632 2.183828782401551, 93.12647174961704 2.4952085596033173, 93.04691977658177 3.1121979531508885 C92.9742549255231 3.485316605615517, 92.90159007446441 3.8584352580801458, 92.80796928754556 4.339158212148129 C92.72541776131136 4.65396295973694, 92.64286623507715 4.9687677073257515, 92.49089813421489 5.548287939305125 C92.3560485229448 5.954433483082809, 92.22119891167473 6.360579026860492, 92.09700922997033 6.734618561215495 C91.96213383914434 7.067763384193957, 91.82725844831836 7.400908207172419, 91.62792114880834 7.893275190886679 C91.42894144725543 8.306460798644899, 91.2299617457025 8.71964640640312, 91.0855614742735 9.019496659696284 C90.89643710131529 9.355306134803005, 90.70731272835708 9.691115609909728, 90.47215887860425 10.108655082055236 C90.2381834245443 10.468104210697927, 90.00420797048436 10.827553339340616, 89.79023396464065 11.156274872382301 C89.58878620413495 11.426196519191413, 89.38733844362926 11.696118166000524, 89.04258890812659 12.158051136245302 C88.80766477710542 12.434006388104509, 88.57274064608424 12.709961639963716, 88.23229594296866 13.10986736009567 C88.05549342806451 13.292430472490633, 87.87869091316037 13.474993584885596, 87.36268473676799 14.007812326905684 C87.16946098115086 14.183293029336733, 86.97623722553375 14.35877373176778, 86.4373287085019 14.848196188198111 C86.2035139266453 15.03465725465609, 85.9696991447887 15.221118321114067, 85.46003034457871 15.627565626425152 C85.2518490022513 15.772783918807695, 85.04366765992388 15.918002211190236, 84.4348055736057 16.34271804539089 C84.15051590882501 16.515056110852456, 83.86622624404431 16.687394176314026, 83.36586726407678 16.990714730406093 C83.00892990617416 17.176928721394606, 82.65199254827152 17.363142712383116, 82.25760791279238 17.56889292409717 C81.84442631806347 17.751796159487128, 81.43124472333456 17.934699394877086, 81.1145815951478 18.07487676824742 C80.76609694999445 18.203122339020602, 80.4176123048411 18.331367909793784, 79.94148525146062 18.506587066708033 C79.67654311550962 18.58522050194864, 79.41160097955861 18.66385393718925, 78.74313938623541 18.86224982926107 C78.3288183059787 18.956815912131944, 77.91449722572199 19.051381995002814, 77.52446825967677 19.140403561325773 C77.10557356544375 19.208127206912494, 76.68667887121075 19.275850852499218, 76.29047965284788 19.3399052695533 C75.88594266238736 19.37893046649611, 75.48140567192684 19.417955663438928, 75.0462442896239 19.45993515863156 C74.66769741832765 19.472074419997245, 74.2891505470314 19.484213681362927, 73.796875 19.5 C73.796875 19.5, 73.796875 19.5, 73.796875 19.5 C35.75135356311284 19.5, -2.294167873774313 19.5, -73.796875 19.5 C-74.24893697295896 19.485503252412457, -74.7009989459179 19.471006504824917, -75.0462442896239 19.45993515863156 C-75.463009320152 19.419730337369796, -75.87977435068011 19.37952551610803, -76.29047965284786 19.3399052695533 C-76.66029497278419 19.28011639658663, -77.03011029272052 19.220327523619964, -77.52446825967675 19.140403561325773 C-77.82294364959894 19.072278501309977, -78.12141903952113 19.004153441294182, -78.74313938623538 18.862249829261074 C-79.1888356687817 18.729969512108852, -79.63453195132804 18.597689194956633, -79.94148525146059 18.506587066708043 C-80.22932192068792 18.40066051169938, -80.51715858991525 18.294733956690724, -81.1145815951478 18.074876768247425 C-81.49311004374357 17.907313452701548, -81.87163849233934 17.739750137155674, -82.25760791279238 17.568892924097174 C-82.61032249791228 17.384881950964598, -82.96303708303218 17.20087097783202, -83.36586726407678 16.990714730406097 C-83.71339845931077 16.780039277535256, -84.06092965454475 16.569363824664418, -84.43480557360569 16.3427180453909 C-84.65470696907387 16.189324351290274, -84.87460836454207 16.035930657189652, -85.46003034457871 15.627565626425156 C-85.7131057425532 15.425744731159675, -85.9661811405277 15.223923835894194, -86.43732870850187 14.848196188198125 C-86.72755068913847 14.584624264236782, -87.01777266977507 14.321052340275438, -87.36268473676797 14.007812326905697 C-87.63011445396069 13.7316691875161, -87.89754417115341 13.455526048126504, -88.23229594296865 13.109867360095677 C-88.41065856722673 12.900352472521293, -88.58902119148483 12.690837584946909, -89.04258890812658 12.158051136245307 C-89.2072791252001 11.93738124895422, -89.37196934227362 11.71671136166313, -89.79023396464063 11.156274872382316 C-90.04397667566403 10.766457928792056, -90.29771938668742 10.376640985201798, -90.47215887860425 10.108655082055249 C-90.62486432490977 9.8375110990366, -90.77756977121528 9.566367116017954, -91.0855614742735 9.019496659696289 C-91.21392201746768 8.752953245277922, -91.34228256066187 8.486409830859554, -91.62792114880834 7.893275190886686 C-91.7361158567104 7.626032170566247, -91.84431056461244 7.358789150245807, -92.09700922997033 6.73461856121551 C-92.24601878005888 6.285825537796466, -92.39502833014743 5.837032514377422, -92.49089813421489 5.5482879393051325 C-92.59804191077892 5.1397022828599805, -92.70518568734295 4.7311166264148286, -92.80796928754556 4.339158212148136 C-92.8587545677398 4.078386531823508, -92.90953984793403 3.81761485149888, -93.04691977658177 3.112197953150904 C-93.08953248425924 2.7817022072353987, -93.1321451919367 2.4512064613198934, -93.20676770250937 1.872449005199809 C-93.23119410844183 1.4919880161618158, -93.25562051437429 1.1115270271238225, -93.28685621591342 0.6250057626472781 C-93.28685621591342 0.31500561545946515, -93.28685621591342 0.005005468271652158, -93.28685621591342 -0.6250057626472687 C-93.26791598882602 -0.9200150878095985, -93.24897576173862 -1.2150244129719283, -93.20676770250937 -1.8724490051997822 C-93.1685322875786 -2.1689953329660647, -93.13029687264785 -2.465541660732347, -93.04691977658177 -3.112197953150895 C-92.99593053498748 -3.3740169321575597, -92.94494129339319 -3.635835911164224, -92.80796928754556 -4.339158212148126 C-92.72365974368114 -4.660667042890638, -92.6393501998167 -4.98217587363315, -92.49089813421489 -5.548287939305123 C-92.35992384757948 -5.942761622732286, -92.22894956094409 -6.337235306159449, -92.09700922997033 -6.734618561215485 C-91.93716682065599 -7.1294324025646425, -91.77732441134165 -7.5242462439138, -91.62792114880834 -7.893275190886676 C-91.43256382708512 -8.298938849422022, -91.2372065053619 -8.704602507957368, -91.0855614742735 -9.019496659696282 C-90.95361267185739 -9.253785119651194, -90.82166386944127 -9.488073579606107, -90.47215887860425 -10.108655082055243 C-90.29888092593258 -10.374856549004265, -90.12560297326091 -10.641058015953288, -89.79023396464063 -11.156274872382308 C-89.5635196868067 -11.460051350584175, -89.33680540897278 -11.763827828786042, -89.04258890812659 -12.158051136245302 C-88.72770185764544 -12.527935383321218, -88.41281480716428 -12.897819630397134, -88.23229594296866 -13.10986736009567 C-87.95422866056177 -13.396994658929241, -87.67616137815489 -13.684121957762812, -87.36268473676799 -14.007812326905677 C-87.11385640274302 -14.233791636230205, -86.86502806871806 -14.459770945554734, -86.4373287085019 -14.848196188198107 C-86.15124251111763 -15.076342317538613, -85.86515631373337 -15.304488446879118, -85.46003034457871 -15.627565626425149 C-85.15705506081115 -15.838908068792753, -84.8540797770436 -16.050250511160357, -84.43480557360571 -16.342718045390885 C-84.14886621242607 -16.51605616650419, -83.86292685124641 -16.689394287617493, -83.36586726407678 -16.99071473040609 C-82.96904003915535 -17.19773923946764, -82.57221281423391 -17.40476374852919, -82.2576079127924 -17.56889292409717 C-81.92215840523198 -17.717386470338074, -81.58670889767157 -17.865880016578977, -81.11458159514781 -18.07487676824742 C-80.82340134978931 -18.18203379018003, -80.53222110443082 -18.28919081211264, -79.94148525146062 -18.506587066708033 C-79.66366783978884 -18.589041816198865, -79.38585042811705 -18.671496565689697, -78.74313938623541 -18.862249829261067 C-78.33729055670675 -18.954882176189866, -77.93144172717808 -19.047514523118664, -77.52446825967677 -19.140403561325773 C-77.18026859469505 -19.19605109385175, -76.83606892971333 -19.251698626377724, -76.29047965284788 -19.3399052695533 C-75.96983447924397 -19.370837523818626, -75.64918930564005 -19.401769778083956, -75.0462442896239 -19.45993515863156 C-74.66884144753315 -19.47203773320734, -74.29143860544241 -19.48414030778312, -73.796875 -19.5 C-73.796875 -19.5, -73.796875 -19.5, -73.796875 -19.5" stroke="none" stroke-width="0" fill="#eef3f8" style=""/><path d="M-73.796875 -19.5 C-15.93871565580767 -19.5, 41.91944368838466 -19.5, 73.796875 -19.5 M-73.796875 -19.5 C-33.940410642478064 -19.5, 5.916053715043873 -19.5, 73.796875 -19.5 M73.796875 -19.5 C73.796875 -19.5, 73.796875 -19.5, 73.796875 -19.5 M73.796875 -19.5 C73.796875 -19.5, 73.796875 -19.5, 73.796875 -19.5 M73.796875 -19.5 C74.21993320910376 -19.486433346666892, 74.6429914182075 -19.472866693333785, 75.0462442896239 -19.45993515863156 M73.796875 -19.5 C74.19941571693522 -19.48709130270586, 74.60195643387044 -19.474182605411723, 75.0462442896239 -19.45993515863156 M75.0462442896239 -19.45993515863156 C75.49278190379037 -19.41685821203297, 75.93931951795685 -19.373781265434385, 76.29047965284786 -19.3399052695533 M75.0462442896239 -19.45993515863156 C75.41439068708974 -19.42442051842885, 75.78253708455557 -19.38890587822614, 76.29047965284786 -19.3399052695533 M76.29047965284786 -19.3399052695533 C76.67715173354017 -19.277391126233738, 77.06382381423248 -19.214876982914177, 77.52446825967675 -19.140403561325776 M76.29047965284786 -19.3399052695533 C76.6476165056317 -19.282166152832865, 77.00475335841554 -19.224427036112434, 77.52446825967675 -19.140403561325776 M77.52446825967675 -19.140403561325776 C77.79679710872497 -19.07824627864234, 78.0691259577732 -19.0160889959589, 78.74313938623538 -18.862249829261074 M77.52446825967675 -19.140403561325776 C77.99463746859719 -19.033090507530506, 78.46480667751763 -18.925777453735236, 78.74313938623538 -18.862249829261074 M78.74313938623538 -18.862249829261074 C79.20441139770068 -18.72534671752437, 79.66568340916598 -18.58844360578767, 79.9414852514606 -18.50658706670804 M78.74313938623538 -18.862249829261074 C79.021475959752 -18.779640995259832, 79.29981253326861 -18.697032161258594, 79.9414852514606 -18.50658706670804 M79.9414852514606 -18.50658706670804 C80.18743078097228 -18.416076838352193, 80.43337631048395 -18.325566609996347, 81.1145815951478 -18.074876768247425 M79.9414852514606 -18.50658706670804 C80.31567409772674 -18.368882112318325, 80.68986294399288 -18.231177157928606, 81.1145815951478 -18.074876768247425 M81.1145815951478 -18.074876768247425 C81.53140200954903 -17.89036273533028, 81.94822242395024 -17.70584870241314, 82.25760791279238 -17.568892924097174 M81.1145815951478 -18.074876768247425 C81.4941988273688 -17.906831480488275, 81.87381605958983 -17.738786192729123, 82.25760791279238 -17.568892924097174 M82.25760791279238 -17.568892924097174 C82.68766629052402 -17.344531743900117, 83.11772466825566 -17.120170563703056, 83.36586726407678 -16.990714730406097 M82.25760791279238 -17.568892924097174 C82.51540577171266 -17.434399946225874, 82.77320363063293 -17.299906968354577, 83.36586726407678 -16.990714730406097 M83.36586726407678 -16.990714730406097 C83.62307504458857 -16.834793862339154, 83.88028282510037 -16.67887299427221, 84.4348055736057 -16.342718045390892 M83.36586726407678 -16.990714730406097 C83.65204078740798 -16.817234658820432, 83.93821431073917 -16.64375458723477, 84.4348055736057 -16.342718045390892 M84.4348055736057 -16.342718045390892 C84.66305499757107 -16.183501127990965, 84.89130442153643 -16.024284210591038, 85.46003034457871 -15.627565626425154 M84.4348055736057 -16.342718045390892 C84.68998882277495 -16.164713257475235, 84.94517207194421 -15.986708469559575, 85.46003034457871 -15.627565626425154 M85.46003034457871 -15.627565626425154 C85.73405778839027 -15.409036032161968, 86.00808523220182 -15.190506437898781, 86.43732870850187 -14.848196188198123 M85.46003034457871 -15.627565626425154 C85.65708704515878 -15.470418151611584, 85.85414374573884 -15.313270676798016, 86.43732870850187 -14.848196188198123 M86.43732870850187 -14.848196188198123 C86.64418531111265 -14.660334494832801, 86.85104191372342 -14.472472801467479, 87.36268473676799 -14.007812326905688 M86.43732870850187 -14.848196188198123 C86.65149881605875 -14.653692563145494, 86.86566892361562 -14.459188938092865, 87.36268473676799 -14.007812326905688 M87.36268473676799 -14.007812326905688 C87.69900907393799 -13.660529836036059, 88.03533341110797 -13.313247345166431, 88.23229594296865 -13.10986736009568 M87.36268473676799 -14.007812326905688 C87.70889820134525 -13.65031850007559, 88.05511166592252 -13.292824673245494, 88.23229594296865 -13.10986736009568 M88.23229594296865 -13.10986736009568 C88.45878037642973 -12.843825857222946, 88.68526480989081 -12.577784354350209, 89.04258890812658 -12.158051136245305 M88.23229594296865 -13.10986736009568 C88.53967317735533 -12.748804570324968, 88.84705041174202 -12.387741780554254, 89.04258890812658 -12.158051136245305 M89.04258890812658 -12.158051136245305 C89.29356353133771 -11.821768005400916, 89.54453815454886 -11.485484874556526, 89.79023396464063 -11.156274872382312 M89.04258890812658 -12.158051136245305 C89.22342153895555 -11.915751885126054, 89.40425416978452 -11.673452634006804, 89.79023396464063 -11.156274872382312 M89.79023396464063 -11.156274872382312 C90.0112846065594 -10.816681725986484, 90.23233524847818 -10.477088579590657, 90.47215887860425 -10.108655082055241 M89.79023396464063 -11.156274872382312 C89.93217209783305 -10.938219784073304, 90.07411023102546 -10.720164695764296, 90.47215887860425 -10.108655082055241 M90.47215887860425 -10.108655082055241 C90.6909499675356 -9.720169348657475, 90.90974105646694 -9.331683615259708, 91.0855614742735 -9.019496659696287 M90.47215887860425 -10.108655082055241 C90.67621113568441 -9.746339637077819, 90.88026339276458 -9.384024192100394, 91.0855614742735 -9.019496659696287 M91.0855614742735 -9.019496659696287 C91.29991775165811 -8.574381263217546, 91.51427402904272 -8.129265866738805, 91.62792114880834 -7.893275190886684 M91.0855614742735 -9.019496659696287 C91.22012776562012 -8.74006687645766, 91.35469405696672 -8.460637093219036, 91.62792114880834 -7.893275190886684 M91.62792114880834 -7.893275190886684 C91.79303950028871 -7.485429670384005, 91.95815785176909 -7.077584149881325, 92.09700922997033 -6.734618561215508 M91.62792114880834 -7.893275190886684 C91.72838506715775 -7.645127370225938, 91.82884898550714 -7.396979549565193, 92.09700922997033 -6.734618561215508 M92.09700922997033 -6.734618561215508 C92.18499943054383 -6.469606096422715, 92.27298963111734 -6.204593631629923, 92.49089813421489 -5.548287939305138 M92.09700922997033 -6.734618561215508 C92.18798856797846 -6.460603290723977, 92.2789679059866 -6.1865880202324455, 92.49089813421489 -5.548287939305138 M92.49089813421489 -5.548287939305138 C92.57774890500187 -5.217088308932219, 92.66459967578885 -4.885888678559301, 92.80796928754556 -4.339158212148133 M92.49089813421489 -5.548287939305138 C92.6104687011985 -5.092313545185069, 92.73003926818211 -4.636339151065001, 92.80796928754556 -4.339158212148133 M92.80796928754556 -4.339158212148133 C92.86883854490017 -4.026607440354316, 92.92970780225478 -3.7140566685604988, 93.04691977658177 -3.1121979531509023 M92.80796928754556 -4.339158212148133 C92.88830196635338 -3.9266668847876285, 92.9686346451612 -3.5141755574271234, 93.04691977658177 -3.1121979531509023 M93.04691977658177 -3.1121979531509023 C93.0920703256107 -2.762019210866872, 93.13722087463964 -2.4118404685828416, 93.20676770250937 -1.872449005199798 M93.04691977658177 -3.1121979531509023 C93.10252377442768 -2.680944326109391, 93.15812777227359 -2.2496906990678793, 93.20676770250937 -1.872449005199798 M93.20676770250937 -1.872449005199798 C93.23075467774561 -1.4988325039574417, 93.25474165298185 -1.1252160027150857, 93.28685621591342 -0.6250057626472757 M93.20676770250937 -1.872449005199798 C93.2334251321093 -1.4572380216908243, 93.26008256170925 -1.0420270381818506, 93.28685621591342 -0.6250057626472757 M93.28685621591342 -0.6250057626472757 C93.28685621591342 -0.19036370542060999, 93.28685621591342 0.24427835180605573, 93.28685621591342 0.625005762647271 M93.28685621591342 -0.6250057626472757 C93.28685621591342 -0.19706658549353284, 93.28685621591342 0.23087259166021, 93.28685621591342 0.625005762647271 M93.28685621591342 0.625005762647271 C93.25709560075578 1.0885513660637787, 93.22733498559812 1.5520969694802864, 93.20676770250937 1.8724490051997846 M93.28685621591342 0.625005762647271 C93.26275671897315 1.0003748802557606, 93.23865722203288 1.3757439978642503, 93.20676770250937 1.8724490051997846 M93.20676770250937 1.8724490051997846 C93.1466398148157 2.338789028557423, 93.08651192712203 2.8051290519150607, 93.04691977658177 3.1121979531508885 M93.20676770250937 1.8724490051997846 C93.15952812549052 2.238829836048298, 93.11228854847168 2.605210666896811, 93.04691977658177 3.1121979531508885 M93.04691977658177 3.1121979531508885 C92.95841150413742 3.5666692259226633, 92.86990323169306 4.021140498694439, 92.80796928754556 4.339158212148129 M93.04691977658177 3.1121979531508885 C92.96149084176425 3.5508574780271576, 92.87606190694672 3.9895170029034266, 92.80796928754556 4.339158212148129 M92.80796928754556 4.339158212148129 C92.73110766142175 4.6322649045977276, 92.65424603529793 4.925371597047327, 92.49089813421489 5.548287939305125 M92.80796928754556 4.339158212148129 C92.68987685187443 4.789495850947525, 92.5717844162033 5.239833489746921, 92.49089813421489 5.548287939305125 M92.49089813421489 5.548287939305125 C92.39614747007361 5.833661843230454, 92.30139680593234 6.119035747155782, 92.09700922997033 6.734618561215495 M92.49089813421489 5.548287939305125 C92.37181886637234 5.906935721342083, 92.2527395985298 6.26558350337904, 92.09700922997033 6.734618561215495 M92.09700922997033 6.734618561215495 C91.910591020219 7.195075143452145, 91.72417281046769 7.655531725688797, 91.62792114880834 7.893275190886679 M92.09700922997033 6.734618561215495 C91.93772121723764 7.1280630322894565, 91.77843320450495 7.521507503363419, 91.62792114880834 7.893275190886679 M91.62792114880834 7.893275190886679 C91.45489574818778 8.252566137425775, 91.28187034756722 8.611857083964873, 91.0855614742735 9.019496659696284 M91.62792114880834 7.893275190886679 C91.41716532967163 8.330914158776174, 91.20640951053494 8.768553126665669, 91.0855614742735 9.019496659696284 M91.0855614742735 9.019496659696284 C90.89015494160084 9.366460745513658, 90.69474840892818 9.713424831331032, 90.47215887860425 10.108655082055236 M91.0855614742735 9.019496659696284 C90.94132043693605 9.275611227477777, 90.7970793995986 9.531725795259272, 90.47215887860425 10.108655082055236 M90.47215887860425 10.108655082055236 C90.24805525295262 10.452938431305657, 90.02395162730099 10.79722178055608, 89.79023396464065 11.156274872382301 M90.47215887860425 10.108655082055236 C90.31830123802617 10.34502173454454, 90.16444359744807 10.581388387033844, 89.79023396464065 11.156274872382301 M89.79023396464065 11.156274872382301 C89.50246598898589 11.54185774355778, 89.21469801333113 11.927440614733257, 89.04258890812659 12.158051136245302 M89.79023396464065 11.156274872382301 C89.63017994994921 11.370732670848126, 89.47012593525777 11.58519046931395, 89.04258890812659 12.158051136245302 M89.04258890812659 12.158051136245302 C88.8527744332353 12.3810180192022, 88.66295995834402 12.6039849021591, 88.23229594296866 13.10986736009567 M89.04258890812659 12.158051136245302 C88.78814356547196 12.456937114077586, 88.53369822281732 12.755823091909873, 88.23229594296866 13.10986736009567 M88.23229594296866 13.10986736009567 C87.93946819629787 13.412236050138382, 87.64664044962707 13.714604740181096, 87.36268473676799 14.007812326905684 M88.23229594296866 13.10986736009567 C87.92159686657243 13.430689665343357, 87.61089779017618 13.751511970591043, 87.36268473676799 14.007812326905684 M87.36268473676799 14.007812326905684 C87.114684408468 14.233039663338632, 86.86668408016799 14.458266999771578, 86.4373287085019 14.848196188198111 M87.36268473676799 14.007812326905684 C86.9998729410721 14.337308400282616, 86.63706114537621 14.666804473659548, 86.4373287085019 14.848196188198111 M86.4373287085019 14.848196188198111 C86.23890954879558 15.006430187908302, 86.04049038908927 15.164664187618493, 85.46003034457871 15.627565626425152 M86.4373287085019 14.848196188198111 C86.11124042549504 15.108242916322434, 85.78515214248817 15.368289644446756, 85.46003034457871 15.627565626425152 M85.46003034457871 15.627565626425152 C85.1089890484035 15.872436838304187, 84.75794775222829 16.117308050183222, 84.4348055736057 16.34271804539089 M85.46003034457871 15.627565626425152 C85.20356337693477 15.806465880777473, 84.94709640929084 15.985366135129793, 84.4348055736057 16.34271804539089 M84.4348055736057 16.34271804539089 C84.16668241198101 16.505255881634373, 83.89855925035631 16.667793717877853, 83.36586726407678 16.990714730406093 M84.4348055736057 16.34271804539089 C84.0746314378331 16.561057723114402, 83.71445730206051 16.77939740083791, 83.36586726407678 16.990714730406093 M83.36586726407678 16.990714730406093 C83.11335327145717 17.122451118612815, 82.86083927883756 17.254187506819534, 82.25760791279238 17.56889292409717 M83.36586726407678 16.990714730406093 C83.05316590516334 17.153850829056456, 82.7404645462499 17.31698692770682, 82.25760791279238 17.56889292409717 M82.25760791279238 17.56889292409717 C81.9805521518337 17.69153729090643, 81.70349639087503 17.814181657715693, 81.1145815951478 18.07487676824742 M82.25760791279238 17.56889292409717 C81.95433934798669 17.703140921594304, 81.65107078318101 17.837388919091442, 81.1145815951478 18.07487676824742 M81.1145815951478 18.07487676824742 C80.72473369985968 18.218344397427884, 80.33488580457158 18.361812026608348, 79.94148525146062 18.506587066708033 M81.1145815951478 18.07487676824742 C80.71869269797561 18.220567541963632, 80.32280380080344 18.366258315679847, 79.94148525146062 18.506587066708033 M79.94148525146062 18.506587066708033 C79.64332268050681 18.595080152679852, 79.34516010955299 18.68357323865167, 78.74313938623541 18.86224982926107 M79.94148525146062 18.506587066708033 C79.57305649702218 18.615934787103367, 79.20462774258372 18.725282507498704, 78.74313938623541 18.86224982926107 M78.74313938623541 18.86224982926107 C78.4918009916501 18.919616177688866, 78.24046259706476 18.97698252611666, 77.52446825967677 19.140403561325773 M78.74313938623541 18.86224982926107 C78.30843990642407 18.9614671488488, 77.87374042661273 19.06068446843653, 77.52446825967677 19.140403561325773 M77.52446825967677 19.140403561325773 C77.07680815074582 19.212777776081733, 76.62914804181487 19.285151990837697, 76.29047965284788 19.3399052695533 M77.52446825967677 19.140403561325773 C77.2374553012511 19.186805590625298, 76.95044234282544 19.233207619924826, 76.29047965284788 19.3399052695533 M76.29047965284788 19.3399052695533 C75.90935473700183 19.376671931815192, 75.52822982115579 19.41343859407709, 75.0462442896239 19.45993515863156 M76.29047965284788 19.3399052695533 C75.8787292443414 19.3796263362596, 75.46697883583491 19.419347402965908, 75.0462442896239 19.45993515863156 M75.0462442896239 19.45993515863156 C74.7748765100937 19.46863739513575, 74.50350873056352 19.477339631639946, 73.796875 19.5 M75.0462442896239 19.45993515863156 C74.63981925796848 19.472968418338414, 74.23339422631307 19.48600167804527, 73.796875 19.5 M73.796875 19.5 C73.796875 19.5, 73.796875 19.5, 73.796875 19.5 M73.796875 19.5 C73.796875 19.5, 73.796875 19.5, 73.796875 19.5 M73.796875 19.5 C36.65324581625708 19.5, -0.49038336748583333 19.5, -73.796875 19.5 M73.796875 19.5 C18.408491540416982 19.5, -36.979891919166036 19.5, -73.796875 19.5 M-73.796875 19.5 C-74.11757056218056 19.489715917516914, -74.4382661243611 19.47943183503383, -75.0462442896239 19.45993515863156 M-73.796875 19.5 C-74.22072008384762 19.486408113125414, -74.64456516769523 19.47281622625083, -75.0462442896239 19.45993515863156 M-75.0462442896239 19.45993515863156 C-75.54342284389148 19.41197294144606, -76.04060139815904 19.36401072426056, -76.29047965284786 19.3399052695533 M-75.0462442896239 19.45993515863156 C-75.54072508486502 19.412233191014813, -76.03520588010613 19.364531223398064, -76.29047965284786 19.3399052695533 M-76.29047965284786 19.3399052695533 C-76.73364062258719 19.268258440730495, -77.1768015923265 19.196611611907688, -77.52446825967675 19.140403561325773 M-76.29047965284786 19.3399052695533 C-76.72851674453273 19.26908682959807, -77.16655383621757 19.198268389642845, -77.52446825967675 19.140403561325773 M-77.52446825967675 19.140403561325773 C-77.94112853852583 19.04530357164089, -78.35778881737491 18.95020358195601, -78.74313938623538 18.862249829261074 M-77.52446825967675 19.140403561325773 C-77.97024099936048 19.038658842431943, -78.41601373904423 18.93691412353811, -78.74313938623538 18.862249829261074 M-78.74313938623538 18.862249829261074 C-79.08158698920066 18.7618003572487, -79.42003459216595 18.661350885236327, -79.94148525146059 18.506587066708043 M-78.74313938623538 18.862249829261074 C-79.03777416130924 18.774803774588648, -79.3324089363831 18.68735771991622, -79.94148525146059 18.506587066708043 M-79.94148525146059 18.506587066708043 C-80.1895173792221 18.415308950907953, -80.4375495069836 18.324030835107866, -81.1145815951478 18.074876768247425 M-79.94148525146059 18.506587066708043 C-80.22410697644963 18.40257965938549, -80.50672870143866 18.29857225206294, -81.1145815951478 18.074876768247425 M-81.1145815951478 18.074876768247425 C-81.37497728296646 17.95960732161374, -81.6353729707851 17.844337874980056, -82.25760791279238 17.568892924097174 M-81.1145815951478 18.074876768247425 C-81.41258035382732 17.942961557599094, -81.71057911250686 17.81104634695076, -82.25760791279238 17.568892924097174 M-82.25760791279238 17.568892924097174 C-82.59838493595798 17.391109769389782, -82.93916195912358 17.213326614682394, -83.36586726407678 16.990714730406097 M-82.25760791279238 17.568892924097174 C-82.63658135445391 17.371182722326427, -83.01555479611544 17.173472520555684, -83.36586726407678 16.990714730406097 M-83.36586726407678 16.990714730406097 C-83.6919498250717 16.79304156565715, -84.01803238606661 16.595368400908196, -84.43480557360569 16.3427180453909 M-83.36586726407678 16.990714730406097 C-83.75824450138342 16.752853343286223, -84.15062173869005 16.51499195616635, -84.43480557360569 16.3427180453909 M-84.43480557360569 16.3427180453909 C-84.73585480918278 16.132719130863684, -85.03690404475988 15.92272021633647, -85.46003034457871 15.627565626425156 M-84.43480557360569 16.3427180453909 C-84.67186565787979 16.177355192766935, -84.9089257421539 16.011992340142967, -85.46003034457871 15.627565626425156 M-85.46003034457871 15.627565626425156 C-85.7054625318322 15.431839988315302, -85.95089471908567 15.23611435020545, -86.43732870850187 14.848196188198125 M-85.46003034457871 15.627565626425156 C-85.72996922328372 15.412296554033153, -85.99990810198874 15.197027481641152, -86.43732870850187 14.848196188198125 M-86.43732870850187 14.848196188198125 C-86.74740204217674 14.566595790645444, -87.05747537585161 14.284995393092764, -87.36268473676797 14.007812326905697 M-86.43732870850187 14.848196188198125 C-86.63496510530787 14.668708041791428, -86.83260150211386 14.48921989538473, -87.36268473676797 14.007812326905697 M-87.36268473676797 14.007812326905697 C-87.68565777144997 13.67431615201725, -88.00863080613196 13.340819977128803, -88.23229594296865 13.109867360095677 M-87.36268473676797 14.007812326905697 C-87.67338979650788 13.68698384336443, -87.98409485624778 13.366155359823166, -88.23229594296865 13.109867360095677 M-88.23229594296865 13.109867360095677 C-88.453059777941 12.850545597719089, -88.67382361291334 12.591223835342502, -89.04258890812658 12.158051136245307 M-88.23229594296865 13.109867360095677 C-88.42783475971667 12.88017633946958, -88.62337357646469 12.650485318843481, -89.04258890812658 12.158051136245307 M-89.04258890812658 12.158051136245307 C-89.22214632799505 11.917460551639014, -89.40170374786354 11.676869967032719, -89.79023396464063 11.156274872382316 M-89.04258890812658 12.158051136245307 C-89.21238224578245 11.93054353227772, -89.38217558343831 11.703035928310136, -89.79023396464063 11.156274872382316 M-89.79023396464063 11.156274872382316 C-90.02120073818003 10.801447884963043, -90.25216751171942 10.44662089754377, -90.47215887860425 10.108655082055249 M-89.79023396464063 11.156274872382316 C-90.06137071319438 10.739736016192365, -90.33250746174812 10.323197160002415, -90.47215887860425 10.108655082055249 M-90.47215887860425 10.108655082055249 C-90.64064569578649 9.809489677007894, -90.80913251296873 9.51032427196054, -91.0855614742735 9.019496659696289 M-90.47215887860425 10.108655082055249 C-90.70667829308012 9.692242113987518, -90.94119770755599 9.275829145919788, -91.0855614742735 9.019496659696289 M-91.0855614742735 9.019496659696289 C-91.29174980643252 8.591342176244519, -91.49793813859154 8.16318769279275, -91.62792114880834 7.893275190886686 M-91.0855614742735 9.019496659696289 C-91.2547581828768 8.668156074051938, -91.4239548914801 8.316815488407585, -91.62792114880834 7.893275190886686 M-91.62792114880834 7.893275190886686 C-91.7649286877651 7.554863920802896, -91.90193622672189 7.216452650719107, -92.09700922997033 6.73461856121551 M-91.62792114880834 7.893275190886686 C-91.79105020894502 7.490343258463243, -91.95417926908172 7.0874113260398, -92.09700922997033 6.73461856121551 M-92.09700922997033 6.73461856121551 C-92.2381368824504 6.30956455758331, -92.3792645349305 5.884510553951111, -92.49089813421489 5.5482879393051325 M-92.09700922997033 6.73461856121551 C-92.23891374483728 6.307224771850304, -92.38081825970421 5.879830982485098, -92.49089813421489 5.5482879393051325 M-92.49089813421489 5.5482879393051325 C-92.59579566308368 5.148268198851818, -92.70069319195248 4.748248458398504, -92.80796928754556 4.339158212148136 M-92.49089813421489 5.5482879393051325 C-92.59247383339672 5.160935775138257, -92.69404953257857 4.7735836109713805, -92.80796928754556 4.339158212148136 M-92.80796928754556 4.339158212148136 C-92.89943023988761 3.8695255521508156, -92.99089119222967 3.3998928921534954, -93.04691977658177 3.112197953150904 M-92.80796928754556 4.339158212148136 C-92.89621128949315 3.8860541821009815, -92.98445329144073 3.4329501520538277, -93.04691977658177 3.112197953150904 M-93.04691977658177 3.112197953150904 C-93.0888901125163 2.7866843156230607, -93.1308604484508 2.461170678095218, -93.20676770250937 1.872449005199809 M-93.04691977658177 3.112197953150904 C-93.1016174268601 2.687973778864988, -93.15631507713842 2.263749604579072, -93.20676770250937 1.872449005199809 M-93.20676770250937 1.872449005199809 C-93.23502398151057 1.4323346516982784, -93.26328026051176 0.992220298196748, -93.28685621591342 0.6250057626472781 M-93.20676770250937 1.872449005199809 C-93.22672750816535 1.5615589208427847, -93.24668731382133 1.2506688364857603, -93.28685621591342 0.6250057626472781 M-93.28685621591342 0.6250057626472781 C-93.28685621591342 0.2939846271028939, -93.28685621591342 -0.03703650844149031, -93.28685621591342 -0.6250057626472687 M-93.28685621591342 0.6250057626472781 C-93.28685621591342 0.33761583856745764, -93.28685621591342 0.050225914487637136, -93.28685621591342 -0.6250057626472687 M-93.28685621591342 -0.6250057626472687 C-93.25629247270439 -1.1010607337373548, -93.22572872949536 -1.5771157048274411, -93.20676770250937 -1.8724490051997822 M-93.28685621591342 -0.6250057626472687 C-93.2695340098044 -0.8948131050282029, -93.2522118036954 -1.164620447409137, -93.20676770250937 -1.8724490051997822 M-93.20676770250937 -1.8724490051997822 C-93.16647444422354 -2.1849555596608177, -93.12618118593771 -2.497462114121853, -93.04691977658177 -3.112197953150895 M-93.20676770250937 -1.8724490051997822 C-93.15887087114253 -2.2439273709818495, -93.11097403977568 -2.6154057367639165, -93.04691977658177 -3.112197953150895 M-93.04691977658177 -3.112197953150895 C-92.9830988412227 -3.439904967660265, -92.91927790586364 -3.7676119821696354, -92.80796928754556 -4.339158212148126 M-93.04691977658177 -3.112197953150895 C-92.95222131207579 -3.59845455386153, -92.85752284756983 -4.084711154572164, -92.80796928754556 -4.339158212148126 M-92.80796928754556 -4.339158212148126 C-92.72804037595353 -4.64396179345797, -92.64811146436149 -4.948765374767814, -92.49089813421489 -5.548287939305123 M-92.80796928754556 -4.339158212148126 C-92.7424424661634 -4.58904038158238, -92.67691564478122 -4.838922551016634, -92.49089813421489 -5.548287939305123 M-92.49089813421489 -5.548287939305123 C-92.3838009769166 -5.870847513472802, -92.27670381961833 -6.193407087640483, -92.09700922997033 -6.734618561215485 M-92.49089813421489 -5.548287939305123 C-92.38658459803594 -5.862463690171187, -92.28227106185697 -6.176639441037251, -92.09700922997033 -6.734618561215485 M-92.09700922997033 -6.734618561215485 C-91.95777258418079 -7.078535768273066, -91.81853593839125 -7.422452975330648, -91.62792114880834 -7.893275190886676 M-92.09700922997033 -6.734618561215485 C-91.99645449192148 -6.982990708289745, -91.89589975387263 -7.231362855364006, -91.62792114880834 -7.893275190886676 M-91.62792114880834 -7.893275190886676 C-91.4811077510359 -8.198136352664621, -91.33429435326347 -8.502997514442567, -91.0855614742735 -9.019496659696282 M-91.62792114880834 -7.893275190886676 C-91.5075357071334 -8.143258136360494, -91.38715026545847 -8.393241081834312, -91.0855614742735 -9.019496659696282 M-91.0855614742735 -9.019496659696282 C-90.8747245175746 -9.393859025872109, -90.66388756087571 -9.768221392047936, -90.47215887860425 -10.108655082055243 M-91.0855614742735 -9.019496659696282 C-90.88631456490579 -9.37327972321603, -90.68706765553809 -9.727062786735779, -90.47215887860425 -10.108655082055243 M-90.47215887860425 -10.108655082055243 C-90.2819165209833 -10.400918430586918, -90.09167416336236 -10.693181779118595, -89.79023396464063 -11.156274872382308 M-90.47215887860425 -10.108655082055243 C-90.21776253024872 -10.499476188113865, -89.96336618189319 -10.89029729417249, -89.79023396464063 -11.156274872382308 M-89.79023396464063 -11.156274872382308 C-89.55510513779905 -11.471326079673258, -89.31997631095744 -11.786377286964209, -89.04258890812659 -12.158051136245302 M-89.79023396464063 -11.156274872382308 C-89.63287516857328 -11.367121323431327, -89.47551637250594 -11.577967774480346, -89.04258890812659 -12.158051136245302 M-89.04258890812659 -12.158051136245302 C-88.7559152585659 -12.494794317212035, -88.46924160900524 -12.831537498178768, -88.23229594296866 -13.10986736009567 M-89.04258890812659 -12.158051136245302 C-88.8202252024492 -12.419252197787262, -88.5978614967718 -12.680453259329223, -88.23229594296866 -13.10986736009567 M-88.23229594296866 -13.10986736009567 C-87.90056058967895 -13.452411348346319, -87.56882523638924 -13.794955336596967, -87.36268473676799 -14.007812326905677 M-88.23229594296866 -13.10986736009567 C-87.89778469078068 -13.455277691864321, -87.5632734385927 -13.80068802363297, -87.36268473676799 -14.007812326905677 M-87.36268473676799 -14.007812326905677 C-87.16633758442653 -14.18612961560122, -86.96999043208507 -14.364446904296766, -86.4373287085019 -14.848196188198107 M-87.36268473676799 -14.007812326905677 C-87.06645006274482 -14.276844819913558, -86.77021538872164 -14.54587731292144, -86.4373287085019 -14.848196188198107 M-86.4373287085019 -14.848196188198107 C-86.16555490534752 -15.064928564009081, -85.89378110219315 -15.281660939820057, -85.46003034457871 -15.627565626425149 M-86.4373287085019 -14.848196188198107 C-86.15111876164877 -15.076441004446917, -85.86490881479565 -15.304685820695726, -85.46003034457871 -15.627565626425149 M-85.46003034457871 -15.627565626425149 C-85.22179075345794 -15.793751251965325, -84.98355116233716 -15.959936877505502, -84.43480557360571 -16.342718045390885 M-85.46003034457871 -15.627565626425149 C-85.1193083583547 -15.865238534397962, -84.77858637213069 -16.102911442370775, -84.43480557360571 -16.342718045390885 M-84.43480557360571 -16.342718045390885 C-84.08703524782659 -16.55353846060347, -83.73926492204747 -16.764358875816054, -83.36586726407678 -16.99071473040609 M-84.43480557360571 -16.342718045390885 C-84.1324419519305 -16.526012649736266, -83.83007833025529 -16.70930725408165, -83.36586726407678 -16.99071473040609 M-83.36586726407678 -16.99071473040609 C-82.95714843447341 -17.20394308201327, -82.54842960487004 -17.41717143362045, -82.2576079127924 -17.56889292409717 M-83.36586726407678 -16.99071473040609 C-82.95495889440338 -17.20508536366534, -82.54405052472997 -17.419455996924587, -82.2576079127924 -17.56889292409717 M-82.2576079127924 -17.56889292409717 C-81.89439109732241 -17.72967823386172, -81.53117428185242 -17.890463543626268, -81.11458159514781 -18.07487676824742 M-82.2576079127924 -17.56889292409717 C-81.80269431767901 -17.770269678121526, -81.34778072256564 -17.971646432145878, -81.11458159514781 -18.07487676824742 M-81.11458159514781 -18.07487676824742 C-80.68706781840851 -18.232205789981514, -80.25955404166922 -18.389534811715606, -79.94148525146062 -18.506587066708033 M-81.11458159514781 -18.07487676824742 C-80.75642365272367 -18.206682201835232, -80.39826571029951 -18.338487635423046, -79.94148525146062 -18.506587066708033 M-79.94148525146062 -18.506587066708033 C-79.47861742776466 -18.64396380713821, -79.01574960406869 -18.781340547568384, -78.74313938623541 -18.862249829261067 M-79.94148525146062 -18.506587066708033 C-79.46445417632248 -18.64816738582182, -78.98742310118433 -18.78974770493561, -78.74313938623541 -18.862249829261067 M-78.74313938623541 -18.862249829261067 C-78.29234198158898 -18.965141395143633, -77.84154457694254 -19.068032961026198, -77.52446825967677 -19.140403561325773 M-78.74313938623541 -18.862249829261067 C-78.42925499610642 -18.93389189302094, -78.11537060597743 -19.005533956780816, -77.52446825967677 -19.140403561325773 M-77.52446825967677 -19.140403561325773 C-77.18693628591859 -19.194973113243442, -76.84940431216043 -19.249542665161115, -76.29047965284788 -19.3399052695533 M-77.52446825967677 -19.140403561325773 C-77.21538466101156 -19.190373800578858, -76.90630106234634 -19.240344039831943, -76.29047965284788 -19.3399052695533 M-76.29047965284788 -19.3399052695533 C-75.84715872435214 -19.38267190635386, -75.4038377958564 -19.42543854315442, -75.0462442896239 -19.45993515863156 M-76.29047965284788 -19.3399052695533 C-75.93786008061036 -19.37392205559997, -75.58524050837283 -19.407938841646644, -75.0462442896239 -19.45993515863156 M-75.0462442896239 -19.45993515863156 C-74.72244760880005 -19.470318687953576, -74.3986509279762 -19.48070221727559, -73.796875 -19.5 M-75.0462442896239 -19.45993515863156 C-74.7165108194705 -19.470509069232115, -74.3867773493171 -19.481082979832667, -73.796875 -19.5 M-73.796875 -19.5 C-73.796875 -19.5, -73.796875 -19.5, -73.796875 -19.5 M-73.796875 -19.5 C-73.796875 -19.5, -73.796875 -19.5, -73.796875 -19.5" stroke="#52606d" stroke-width="1.3" fill="none" stroke-dasharray="0 0" style=""/></g><g class="label" style="" transform="translate(-80.921875, -12)"><rect/><foreignObject width="161.84375" height="24"><div xmlns="http://www.w3.org/1999/xhtml" style="display: table-cell; white-space: nowrap; line-height: 1.5; max-width: 200px; text-align: center;"><span class="nodeLabel"><p>Reviewer / investigator</p></span></div></foreignObject></g></g><g class="node default" id="my-svg-flowchart-Corpus-1" data-look="classic" transform="translate(354.3515625, 421.13671875)"><path d="M0,15.808823529411764 a107.5,15.808823529411764 0,0,0 215,0 a107.5,15.808823529411764 0,0,0 -215,0 l0,78.80882352941177 a107.5,15.808823529411764 0,0,0 215,0 l0,-78.80882352941177" class="basic label-container outer-path" style="" transform="translate(-107.5, -55.21323529411765)"/><g class="label" style="" transform="translate(-100, -14)"><rect/><foreignObject width="200" height="48"><div xmlns="http://www.w3.org/1999/xhtml" style="display: table; white-space: break-spaces; line-height: 1.5; max-width: 200px; text-align: center; width: 200px;"><span class="nodeLabel"><p>Synthetic corpus + gold labels</p></span></div></foreignObject></g></g><g class="node default" id="my-svg-flowchart-Files-2" data-look="classic" transform="translate(354.3515625, 627.8499565124512)"><rect class="basic label-container" style="" x="-130" y="-39" width="260" height="78"/><g class="label" style="" transform="translate(-100, -24)"><rect/><foreignObject width="200" height="48"><div xmlns="http://www.w3.org/1999/xhtml" style="display: table; white-space: break-spaces; line-height: 1.5; max-width: 200px; text-align: center; width: 200px;"><span class="nodeLabel"><p>Optional PDF / DOCX / EML inputs</p></span></div></foreignObject></g></g><g class="node default" id="my-svg-flowchart-Validate-3" data-look="classic" transform="translate(953.75, 523.8968315124512)"><rect class="basic label-container" style="" rx="5" ry="5" x="-115" y="-51" width="230" height="102"/><g class="label" style="" transform="translate(-100, -36)"><rect/><foreignObject width="200" height="72"><div xmlns="http://www.w3.org/1999/xhtml" style="display: table; white-space: break-spaces; line-height: 1.5; max-width: 200px; text-align: center; width: 200px;"><span class="nodeLabel"><p>Schema, checksum, deduplication, and chain-of-custody validation</p></span></div></foreignObject></g></g><g class="node default" id="my-svg-flowchart-Extract-4" data-look="classic" transform="translate(1329.796875, 663.8968315124512)"><rect class="basic label-container" style="" rx="5" ry="5" x="-115" y="-39" width="230" height="78"/><g class="label" style="" transform="translate(-100, -24)"><rect/><foreignObject width="200" height="48"><div xmlns="http://www.w3.org/1999/xhtml" style="display: table; white-space: break-spaces; line-height: 1.5; max-width: 200px; text-align: center; width: 200px;"><span class="nodeLabel"><p>Entity, event, privilege, and synthetic-PII extraction</p></span></div></foreignObject></g></g><g class="node default" id="my-svg-flowchart-Embed-5" data-look="classic" transform="translate(1702.96875, 523.63671875)"><rect class="basic label-container" style="" rx="5" ry="5" x="-115" y="-39" width="230" height="78"/><g class="label" style="" transform="translate(-100, -24)"><rect/><foreignObject width="200" height="48"><div xmlns="http://www.w3.org/1999/xhtml" style="display: table; white-space: break-spaces; line-height: 1.5; max-width: 200px; text-align: center; width: 200px;"><span class="nodeLabel"><p>Sentence-transformer embeddings</p></span></div></foreignObject></g></g><g class="node default" id="my-svg-flowchart-Evaluate-6" data-look="classic" transform="translate(953.75, 663.8968315124512)"><rect class="basic label-container" style="" rx="5" ry="5" x="-115" y="-51" width="230" height="102"/><g class="label" style="" transform="translate(-100, -36)"><rect/><foreignObject width="200" height="72"><div xmlns="http://www.w3.org/1999/xhtml" style="display: table; white-space: break-spaces; line-height: 1.5; max-width: 200px; text-align: center; width: 200px;"><span class="nodeLabel"><p>Deterministic extraction, retrieval, refusal, and flag evaluation</p></span></div></foreignObject></g></g><g class="node default" id="my-svg-flowchart-Vector-7" data-look="classic" transform="translate(2167.28125, 523.63671875)"><path d="M0,15.808823529411764 a107.5,15.808823529411764 0,0,0 215,0 a107.5,15.808823529411764 0,0,0 -215,0 l0,78.80882352941177 a107.5,15.808823529411764 0,0,0 215,0 l0,-78.80882352941177" class="basic label-container outer-path" style="" transform="translate(-107.5, -55.21323529411765)"/><g class="label" style="" transform="translate(-100, -14)"><rect/><foreignObject width="200" height="48"><div xmlns="http://www.w3.org/1999/xhtml" style="display: table; white-space: break-spaces; line-height: 1.5; max-width: 200px; text-align: center; width: 200px;"><span class="nodeLabel"><p>Supabase PostgreSQL + pgvector</p></span></div></foreignObject></g></g><g class="node default" id="my-svg-flowchart-Graph-8" data-look="classic" transform="translate(2167.28125, 672.0631942749023)"><path d="M0,15.808823529411764 a107.5,15.808823529411764 0,0,0 215,0 a107.5,15.808823529411764 0,0,0 -215,0 l0,78.80882352941177 a107.5,15.808823529411764 0,0,0 215,0 l0,-78.80882352941177" class="basic label-container outer-path" style="" transform="translate(-107.5, -55.21323529411765)"/><g class="label" style="" transform="translate(-100, -14)"><rect/><foreignObject width="200" height="48"><div xmlns="http://www.w3.org/1999/xhtml" style="display: table; white-space: break-spaces; line-height: 1.5; max-width: 200px; text-align: center; width: 200px;"><span class="nodeLabel"><p>Neo4j AuraDB relationship graph</p></span></div></foreignObject></g></g><g class="node default" id="my-svg-flowchart-API-9" data-look="classic" transform="translate(1329.796875, 206.658203125)"><rect class="basic label-container" style="" rx="5" ry="5" x="-108.375" y="-27" width="216.75" height="54"/><g class="label" style="" transform="translate(-93.375, -12)"><rect/><foreignObject width="186.75" height="24"><div xmlns="http://www.w3.org/1999/xhtml" style="display: table-cell; white-space: nowrap; line-height: 1.5; max-width: 200px; text-align: center;"><span class="nodeLabel"><p>Flask investigation service</p></span></div></foreignObject></g></g><g class="node default" id="my-svg-flowchart-Hybrid-10" data-look="classic" transform="translate(1702.96875, 271.841796875)"><rect class="basic label-container" style="" rx="5" ry="5" x="-115" y="-39" width="230" height="78"/><g class="label" style="" transform="translate(-100, -24)"><rect/><foreignObject width="200" height="48"><div xmlns="http://www.w3.org/1999/xhtml" style="display: table; white-space: break-spaces; line-height: 1.5; max-width: 200px; text-align: center; width: 200px;"><span class="nodeLabel"><p>Hybrid retriever + calibrated refusal</p></span></div></foreignObject></g></g><g class="node default" id="my-svg-flowchart-Views-11" data-look="classic" transform="translate(2167.28125, 76)"><rect class="basic label-container" style="" rx="5" ry="5" x="-115" y="-39" width="230" height="78"/><g class="label" style="" transform="translate(-100, -24)"><rect/><foreignObject width="200" height="48"><div xmlns="http://www.w3.org/1999/xhtml" style="display: table; white-space: break-spaces; line-height: 1.5; max-width: 200px; text-align: center; width: 200px;"><span class="nodeLabel"><p>Citations, graph, timeline, flags, and case brief</p></span></div></foreignObject></g></g><g class="node default" id="my-svg-flowchart-Observe-12" data-look="classic" transform="translate(1702.96875, 155.841796875)"><rect class="basic label-container" style="" rx="5" ry="5" x="-115" y="-39" width="230" height="78"/><g class="label" style="" transform="translate(-100, -24)"><rect/><foreignObject width="200" height="48"><div xmlns="http://www.w3.org/1999/xhtml" style="display: table; white-space: break-spaces; line-height: 1.5; max-width: 200px; text-align: center; width: 200px;"><span class="nodeLabel"><p>Status, audit trail, and aggregate evidence</p></span></div></foreignObject></g></g><g class="node default" id="my-svg-flowchart-Model-13" data-look="classic" transform="translate(2167.28125, 389.63671875)"><polygon points="9.75,0 212.390625,0 222.140625,-19.5 212.390625,-39 9.75,-39 0,-19.5" class="label-container" transform="translate(-111.0703125,19.5)"/><g class="label" style="" transform="translate(-93.8203125, -12)"><rect/><foreignObject width="187.640625" height="24"><div xmlns="http://www.w3.org/1999/xhtml" style="display: table-cell; white-space: nowrap; line-height: 1.5; max-width: 200px; text-align: center;"><span class="nodeLabel"><p>ONNX embedding runtime</p></span></div></foreignObject></g></g></g></g></g><defs><filter id="my-svg-drop-shadow" height="130%" width="130%"><feDropShadow dx="4" dy="4" stdDeviation="0" flood-opacity="0.06" flood-color="#000000"/></filter></defs><defs><filter id="my-svg-drop-shadow-small" height="150%" width="150%"><feDropShadow dx="2" dy="2" stdDeviation="0" flood-opacity="0.06" flood-color="#000000"/></filter></defs><linearGradient id="my-svg-gradient" gradientUnits="objectBoundingBox" x1="0%" y1="0%" x2="100%" y2="0%"><stop offset="0%" stop-color="#52606d" stop-opacity="1"/><stop offset="100%" stop-color="hsl(216.5217391304, 60%, 85.4901960784%)" stop-opacity="1"/></linearGradient></svg>