<svg xmlns="http://www.w3.org/2000/svg" width="820" height="446" viewBox="0 0 820 446" role="img" aria-labelledby="title desc"><title id="title">Verified live portfolio project map</title><desc id="desc">The portfolio evidence hub connects to every automatically verified live project revision.</desc><rect width="820" height="446" fill="#f5efe6"/><text x="40" y="38" font-family="Arial, sans-serif" font-size="14" font-weight="700" fill="#5d6159">VERIFIED LIVE PROJECT MAP</text><rect x="40" y="48" width="250" height="52" rx="10" fill="#20231f"/><text x="60" y="70" font-family="Arial, sans-serif" font-size="15" font-weight="700" fill="#fffaf4">Portfolio evidence hub</text><text x="60" y="88" font-family="monospace" font-size="11" fill="#eadbcc">live source verification</text><path d="M290 74 C 350 74, 350 128, 410 128" stroke="#9b4a34" stroke-width="2" fill="none"/><rect x="410" y="100" width="370" height="56" rx="10" fill="#fffaf4" stroke="#5b463d"/><text x="430" y="125" font-family="Arial, sans-serif" font-size="14" font-weight="700" fill="#20231f">Legal Discovery Intelligence Graph</text><text x="430" y="144" font-family="monospace" font-size="11" fill="#5d6159">20a41a19c145 · live</text><path d="M290 74 C 350 74, 350 220, 410 220" stroke="#9b4a34" stroke-width="2" fill="none"/><rect x="410" y="192" width="370" height="56" rx="10" fill="#fffaf4" stroke="#5b463d"/><text x="430" y="217" font-family="Arial, sans-serif" font-size="14" font-weight="700" fill="#20231f">Legal Document Intelligence RAG</text><text x="430" y="236" font-family="monospace" font-size="11" fill="#5d6159">d18ef4a427dc · live</text><path d="M290 74 C 350 74, 350 312, 410 312" stroke="#9b4a34" stroke-width="2" fill="none"/><rect x="410" y="284" width="370" height="56" rx="10" fill="#fffaf4" stroke="#5b463d"/><text x="430" y="309" font-family="Arial, sans-serif" font-size="14" font-weight="700" fill="#20231f">Text-to-SQL Interface with Guardrails and Hallucination Detection</text><text x="430" y="328" font-family="monospace" font-size="11" fill="#5d6159">82fb2f9904aa · temporary-demo</text></svg>
